<?xml version="1.0" encoding="UTF-8"?> <svg xmlns="http://www.w3.org/2000/svg" width="32" height="48" viewBox="0 0 32 48" fill="none"><path d="M31.549 13.7654C30.6265 10.2426 28.3088 7.73862 24.7629 7.43439V5.95453H25.3868C25.9026 5.95387 26.3972 5.74708 26.762 5.37951C27.1267 5.01194 27.3319 4.51359 27.3326 3.99376C27.3314 2.93492 26.9134 1.91979 26.1704 1.17107C25.4274 0.422358 24.4201 0.0012018 23.3693 0H8.63529C7.58452 0.0012018 6.57714 0.422358 5.83414 1.17107C5.09113 1.91979 4.67319 2.93492 4.672 3.99376C4.67265 4.51359 4.87786 5.01194 5.24263 5.37951C5.6074 5.74708 6.10194 5.95387 6.6178 5.95453H7.24168V7.43563C3.70278 7.73862 1.38052 10.2348 0.455961 13.7654C0.0804295 15.2584 -0.06451 16.8008 0.0262463 18.3383C0.364201 25.9981 4.8334 26.9908 5.62974 42.932C5.67897 44.1026 6.12447 45.2209 6.89212 46.1009C7.65977 46.9809 8.70329 47.5695 9.84906 47.7687C11.5344 47.9912 13.2367 48.0527 14.9335 47.9524C15.2883 47.9433 15.6488 47.9347 15.9884 47.9281C16.3543 47.9347 16.7147 47.9428 17.0694 47.9524C18.7662 48.0542 20.4687 47.9927 22.1539 47.7687C23.3001 47.5693 24.3439 46.9803 25.1116 46.0997C25.8793 45.2192 26.3245 44.1002 26.3732 42.9291C26.7169 36.0871 27.4178 31.7384 30.629 24.4022C31.9533 21.1779 32.4367 17.1111 31.549 13.7654ZM30.0297 21.6117C25.3916 22.3642 20.7 22.7317 16.0023 22.7106C11.3045 22.7315 6.61301 22.364 1.97491 21.6117C1.75803 20.811 1.60853 19.9932 1.52799 19.1672C6.31227 19.9592 11.1539 20.3464 16.0023 20.3246C20.8506 20.3469 25.6923 19.9603 30.4766 19.1688C30.3948 19.9942 30.2453 20.8113 30.0297 21.6117ZM30.4115 15.3571C30.5246 16.1297 30.5762 16.9102 30.5659 17.691C25.7542 18.5079 20.8817 18.9057 16.0023 18.8799C11.1229 18.9057 6.25035 18.5079 1.43869 17.691C1.42819 16.91 1.47984 16.1294 1.59313 15.3567C6.35684 16.1355 11.1763 16.5159 16.0023 16.4939C20.8282 16.5158 25.6477 16.1356 30.4115 15.3571ZM6.10575 3.99376C6.1064 3.31793 6.37311 2.66997 6.84735 2.19208C7.32159 1.71419 7.96461 1.44543 8.63529 1.44477H23.3693C24.04 1.44543 24.683 1.71419 25.1572 2.19208C25.6315 2.66997 25.8982 3.31793 25.8988 3.99376C25.8987 4.13058 25.8447 4.26176 25.7487 4.3585C25.6527 4.45525 25.5226 4.50965 25.3868 4.50976H6.6178C6.48203 4.50965 6.35185 4.45525 6.25584 4.3585C6.15984 4.26176 6.10585 4.13058 6.10575 3.99376ZM23.3292 5.95453V7.3993H8.67543V5.95453H23.3292ZM7.95692 8.84407H24.0477C27.2314 8.84407 29.2362 10.8771 30.1014 13.9379C25.4398 14.6972 20.7243 15.0689 16.0023 15.0492C11.2802 15.0691 6.56449 14.6977 1.90282 13.9388C2.76552 10.8853 4.76663 8.8449 7.95692 8.8449V8.84407ZM25.0607 40.7744C19.0356 41.357 12.969 41.357 6.94387 40.7744C6.89595 40.0157 6.82713 39.1389 6.74643 38.3666C12.9021 38.9783 19.1025 38.9783 25.2582 38.3666C25.2582 38.3855 25.2545 38.4037 25.2528 38.4223C25.1697 39.2309 25.1123 39.9727 25.0607 40.7752V40.7744ZM25.8194 34.5462C25.6653 35.3408 25.515 36.291 25.4327 36.9049C19.1615 37.5396 12.8431 37.5396 6.57192 36.9049C6.48671 36.2704 6.33924 35.3424 6.18808 34.5623C6.18358 34.5383 6.17989 34.5136 6.17497 34.4896C12.7095 35.1631 19.2951 35.1631 25.8296 34.4896C25.8259 34.5094 25.823 34.5288 25.8194 34.547V34.5462ZM21.9093 46.345C20.3166 46.5501 18.7083 46.6047 17.1055 46.5081C16.7474 46.499 16.3841 46.4903 15.9892 46.4833C15.6205 46.4904 15.2572 46.4987 14.8991 46.5081C13.2963 46.6049 11.688 46.5503 10.0953 46.345C9.27038 46.2001 8.51967 45.7748 7.96811 45.14C7.41655 44.5052 7.09743 43.6992 7.0639 42.8561C7.05325 42.6458 7.04232 42.4363 7.03113 42.2274C12.9998 42.7997 19.0089 42.7997 24.9776 42.2274C24.9665 42.4388 24.953 42.6468 24.9423 42.8602C24.9079 43.7028 24.5882 44.5082 24.0364 45.1422C23.4846 45.7763 22.7339 46.2007 21.9093 46.345ZM26.154 32.9953C19.4062 33.7358 12.5984 33.7358 5.85054 32.9953C4.68019 28.0278 2.85278 24.3589 2.43576 23.1469C6.9255 23.8339 11.4611 24.1711 16.0023 24.1554C20.5437 24.1711 25.0796 23.8339 29.5696 23.1469C29.1629 24.3258 27.3285 28.0113 26.154 32.9953Z" fill="#024A3F"></path></svg> 