<svg xmlns="http://www.w3.org/2000/svg" width="88" height="88" viewBox="0 0 88 88" fill="none"><circle cx="44" cy="44" r="44" fill="#024A3F"></circle><path d="M57.765 51.6931C57.3969 51.9151 57.147 52.2672 56.8254 52.5424C55.7901 53.4275 54.61 54.08 53.4085 54.702C52.1314 55.3638 50.8183 55.9566 49.5916 56.7168C47.8121 57.8198 46.4539 59.3123 45.4119 61.1131C44.8497 62.0846 44.3966 63.1053 43.9965 64.1525C43.9487 64.2761 43.9327 64.421 43.7706 64.5433C43.7374 64.1592 43.6802 63.8083 43.6802 63.4575C43.6802 61.2327 44.1999 59.1249 45.2272 57.158C46.1017 55.4834 47.4892 54.302 49.1185 53.3916C50.5658 52.5835 52.1141 51.9988 53.6398 51.3648C54.6405 50.9489 55.6333 50.5116 56.5357 49.8976C57.6361 49.1494 58.5093 48.2204 58.9571 46.9406C58.9864 46.8582 59.0342 46.7838 59.0874 46.6801C59.3784 46.9911 59.514 47.3606 59.6628 47.7141C60.2024 48.9912 60.4124 50.3349 60.447 51.7131C60.5094 54.2554 60.0841 56.7008 58.9625 58.9987C57.6241 61.7391 55.4499 63.4973 52.55 64.3958C51.2077 64.8117 49.8229 65.0563 48.4779 65.4576C47.5516 65.7341 46.6665 66.0995 45.9369 66.7574C45.0265 67.5774 44.572 68.6419 44.3195 69.8128C44.3088 69.8646 44.3128 69.9204 44.2969 69.9709C44.1627 70.3789 44.1573 70.7697 44.4976 71.1444C44.0337 71.292 43.5699 70.9717 43.1805 71.3571C42.6423 70.5052 42.1386 69.7131 41.6415 68.917C40.3683 66.8823 39.1815 64.8011 38.1476 62.6348C36.6777 59.5582 35.6583 56.3367 35.0111 52.9902C34.635 51.0472 34.417 49.0949 34.4941 47.1147C34.5725 45.0999 34.9354 43.1303 35.4537 41.1873C36.0172 39.0769 36.7548 37.0196 37.4007 34.9357C37.8951 33.3382 38.3044 31.7208 38.5091 30.0622C38.7642 27.9996 38.6473 25.9516 38.1303 23.9328C38.1143 23.869 38.1236 23.7933 38.0439 23.7534C37.9655 23.9833 38.0133 24.2159 38.0426 24.4392C38.1768 25.4891 38.0705 26.5337 37.9535 27.5717C37.6558 30.2204 36.8318 32.7309 35.8976 35.2121C35.0536 37.4541 34.1406 39.6709 33.4469 41.9661C32.8701 43.8746 32.4661 45.8123 32.3265 47.8071C32.175 49.988 32.4249 52.129 32.8369 54.2621C33.3379 56.8536 34.1831 59.3349 35.2251 61.7537C35.2596 61.8348 35.2876 61.9185 35.3155 62.0022C35.3194 62.0155 35.3062 62.0341 35.2809 62.1085C35.1028 61.9464 34.9433 61.7989 34.7812 61.6514C32.187 59.2937 30.2918 56.4456 28.8645 53.2627C28.0976 51.5549 27.4677 49.8099 27.1859 47.9506C26.9693 46.5206 26.9507 45.0866 27.0849 43.6486C27.3521 40.7846 28.2837 38.1093 29.4014 35.4859C30.2147 33.5748 31.1384 31.7128 31.9983 29.8217C32.8515 27.9451 33.6542 26.0486 34.1353 24.0352C34.6789 21.7639 34.736 19.5019 33.9479 17.2665C33.8708 17.0486 33.7725 16.8386 33.6981 16.6206C33.6316 16.4226 33.4801 16.2578 33.4628 16C34.0396 16.0851 34.5579 16.307 35.0762 16.5157C36.9581 17.2732 38.6287 18.3802 40.169 19.6853C43.4118 22.4337 45.9608 25.731 47.8879 29.5093C48.9165 31.5268 49.7139 33.6346 50.1379 35.8647C50.9512 40.1454 50.4834 44.2733 48.6042 48.2271C47.6619 50.2073 46.4725 52.0373 45.2524 53.8514C44.2105 55.3984 43.1499 56.9347 42.3353 58.6199C41.5418 60.2599 41.0767 61.9703 41.2123 63.8137C41.3305 65.4217 41.8635 66.8969 42.6263 68.2977C42.9213 68.8386 43.231 69.3742 43.6483 69.8978C43.8331 69.3689 43.8875 68.8572 43.9939 68.3602C44.4165 66.3919 44.9933 64.4755 45.9236 62.6813C46.6944 61.1942 47.5556 59.7668 48.7716 58.588C49.787 57.6019 50.9592 56.835 52.1845 56.1413C53.3753 55.4675 54.5887 54.8322 55.6851 54.0029C56.4573 53.4182 57.1165 52.7271 57.6627 51.9284C57.7132 51.8553 57.7637 51.7822 57.761 51.6865C57.8674 51.6479 57.8607 51.5562 57.8607 51.4685C57.9165 51.4645 57.9298 51.4512 57.8993 51.4366C57.8966 51.4366 57.8807 51.4632 57.87 51.4778C57.8009 51.5323 57.7517 51.5961 57.7677 51.6918L57.765 51.6931Z" fill="#23D875"></path></svg>