<?xml version="1.0" encoding="UTF-8"?> <svg xmlns="http://www.w3.org/2000/svg" width="53" height="48" viewBox="0 0 53 48" fill="none"><path d="M3.99364 41.2337C3.52729 41.2337 3.14574 40.8521 3.14574 40.3858V27.4382C3.14574 26.9719 3.52729 26.5903 3.99364 26.5903C4.45999 26.5903 4.84155 26.9719 4.84155 27.4382V40.3858C4.84155 40.8521 4.45999 41.2337 3.99364 41.2337Z" fill="#024A3F"></path><path d="M49.1786 41.6068C48.7122 41.6068 48.3307 41.2252 48.3307 40.7589V27.4128C48.3307 26.9465 48.7122 26.5649 49.1786 26.5649C49.6449 26.5649 50.0265 26.9465 50.0265 27.4128V40.7589C50.0265 41.2252 49.6449 41.6068 49.1786 41.6068Z" fill="#024A3F"></path><path d="M48.814 47.9999H4.06147C1.823 47.9999 0 46.1769 0 43.9384C0 41.7 1.823 39.877 4.06147 39.877H48.8055C51.044 39.877 52.867 41.7 52.867 43.9384C52.867 46.1769 51.0525 47.9999 48.814 47.9999ZM4.06147 41.5728C2.7557 41.5728 1.69581 42.6326 1.69581 43.9384C1.69581 45.2442 2.7557 46.3041 4.06147 46.3041H48.8055C50.1113 46.3041 51.1712 45.2442 51.1712 43.9384C51.1712 42.6326 50.1113 41.5728 48.8055 41.5728H4.06147Z" fill="#024A3F"></path><path d="M48.814 28.286H4.06147C1.823 28.286 0 26.463 0 24.2246C0 21.9861 1.823 20.1631 4.06147 20.1631H48.8055C51.044 20.1631 52.867 21.9861 52.867 24.2246C52.867 26.463 51.0525 28.286 48.814 28.286ZM4.06147 21.8589C2.7557 21.8589 1.69581 22.9188 1.69581 24.2246C1.69581 25.5303 2.7557 26.5902 4.06147 26.5902H48.8055C50.1113 26.5902 51.1712 25.5303 51.1712 24.2246C51.1712 22.9188 50.1113 21.8589 48.8055 21.8589H4.06147Z" fill="#024A3F"></path><path d="M48.814 21.859C48.4918 21.859 48.1781 21.6724 48.0424 21.3587L45.7361 16.2289C45.1765 14.9909 43.9385 14.1854 42.5819 14.1854H10.2936C8.93693 14.1854 7.69899 14.9825 7.13937 16.2289L4.83306 21.3587C4.63804 21.7827 4.13778 21.9777 3.71382 21.7827C3.28987 21.5877 3.09485 21.0874 3.28987 20.6634L5.59618 15.5336C6.42713 13.6852 8.26708 12.4896 10.2936 12.4896H42.5819C44.6084 12.4896 46.4483 13.6852 47.2793 15.5336L49.5856 20.6634C49.7806 21.0874 49.5856 21.5961 49.1616 21.7827C49.0429 21.8335 48.9242 21.859 48.814 21.859Z" fill="#024A3F"></path><path d="M44.5999 34.9336H7.65661C7.19026 34.9336 6.8087 34.552 6.8087 34.0857C6.8087 33.6194 7.19026 33.2378 7.65661 33.2378H44.5999C45.0663 33.2378 45.4478 33.6194 45.4478 34.0857C45.4478 34.552 45.0663 34.9336 44.5999 34.9336Z" fill="#024A3F"></path><path d="M11.5909 37.7149C11.1245 37.7149 10.743 37.3333 10.743 36.867V31.3047C10.743 30.8383 11.1245 30.4568 11.5909 30.4568C12.0572 30.4568 12.4388 30.8383 12.4388 31.3047V36.867C12.4388 37.3333 12.0572 37.7149 11.5909 37.7149Z" fill="#024A3F"></path><path d="M40.6656 37.7147C40.1993 37.7147 39.8177 37.3332 39.8177 36.8668V31.3046C39.8177 30.8382 40.1993 30.4567 40.6656 30.4567C41.132 30.4567 41.5135 30.8382 41.5135 31.3046V36.8668C41.5135 37.3332 41.132 37.7147 40.6656 37.7147Z" fill="#024A3F"></path><path d="M26.124 37.7149C25.6577 37.7149 25.2761 37.3333 25.2761 36.867V31.3047C25.2761 30.8383 25.6577 30.4568 26.124 30.4568C26.5904 30.4568 26.9719 30.8383 26.9719 31.3047V36.867C26.9719 37.3333 26.5988 37.7149 26.124 37.7149Z" fill="#024A3F"></path><path d="M34.2894 14.1855C34.1876 14.1855 34.0859 14.1685 33.9841 14.1261C33.5432 13.9565 33.3312 13.4647 33.4923 13.0323C33.8824 12.0063 34.8914 11.3195 35.9852 11.3195C36.2056 11.3195 36.4261 11.345 36.6465 11.4043C37.0451 11.4976 37.3249 11.3704 37.4944 11.2432C37.7488 11.0482 37.9014 10.726 37.9014 10.4123C37.9014 10.1579 37.8082 9.92897 37.6132 9.74243C37.1214 9.22521 36.8585 8.56385 36.8585 7.86856C36.8585 7.1648 37.1214 6.50344 37.6047 5.99469C38.0286 5.56226 37.9014 5.09591 37.8251 4.91785C37.6725 4.55325 37.2316 4.18865 36.6381 4.3328C35.2475 4.68044 33.7976 3.84101 33.3991 2.44197C33.2125 1.77212 32.6105 1.71277 32.4324 1.71277C32.2544 1.71277 31.6693 1.76364 31.4743 2.44197C31.0588 3.83253 29.7276 4.70588 28.2183 4.32432C27.8198 4.22257 27.54 4.35823 27.3704 4.48542C27.1161 4.68044 26.9634 4.99416 26.9634 5.30789C26.9634 5.57074 27.0567 5.79119 27.2602 5.98621C27.752 6.48648 28.0148 7.15632 28.0148 7.86856C28.0148 8.57232 27.7435 9.24217 27.2602 9.74243C27.0652 9.94593 26.9634 10.1664 26.9634 10.4123C26.9634 10.9125 27.362 11.4382 27.9555 11.4382C28.0403 11.4382 28.1251 11.4298 28.2268 11.4043C29.5241 11.0821 30.9147 11.8113 31.381 13.0323C31.5506 13.4732 31.3302 13.9565 30.8893 14.1261C30.4568 14.2957 29.965 14.0752 29.7955 13.6343C29.6259 13.1849 29.1765 12.9051 28.6253 13.0408C28.3879 13.1001 28.1675 13.1256 27.9555 13.1256C26.4717 13.1256 25.2676 11.9046 25.2676 10.4123C25.2676 9.70852 25.539 9.06411 26.0477 8.54689C26.2258 8.36883 26.319 8.12293 26.319 7.8516C26.319 7.58028 26.2173 7.33438 26.0477 7.14784C25.539 6.63062 25.2761 5.98621 25.2761 5.29093C25.2761 4.44302 25.6746 3.63751 26.3445 3.12029C26.9889 2.62003 27.8283 2.45045 28.6423 2.66242C28.7271 2.68786 28.8034 2.69634 28.8797 2.69634C29.3291 2.69634 29.7276 2.39957 29.8548 1.95018C30.1855 0.788552 31.2199 0 32.4409 0C33.6789 0 34.7048 0.771594 35.0355 1.95866C35.1797 2.47588 35.7223 2.78961 36.2395 2.66242C37.6216 2.34022 38.8765 3.01854 39.3938 4.23953C39.8177 5.24853 39.6057 6.35929 38.8341 7.14784C38.6646 7.33438 38.5628 7.58875 38.5628 7.8516C38.5628 8.10598 38.6646 8.36035 38.8426 8.55537C39.3344 9.05563 39.5973 9.70004 39.5973 10.4038C39.5973 11.2432 39.1987 12.0572 38.5374 12.5744C37.8845 13.0832 37.062 13.2528 36.2395 13.0493C35.6799 12.9051 35.2475 13.1934 35.0779 13.6428C34.9507 13.982 34.6285 14.1855 34.2894 14.1855Z" fill="#024A3F"></path><path d="M32.4409 11.2686C30.5586 11.2686 29.0323 9.74235 29.0323 7.86C29.0323 5.97765 30.5586 4.45142 32.4409 4.45142C34.3148 4.45142 35.8495 5.97765 35.8495 7.86C35.8495 9.74235 34.3233 11.2686 32.4409 11.2686ZM32.4409 6.14723C31.4998 6.14723 30.7282 6.91034 30.7282 7.86C30.7282 8.80965 31.4998 9.57277 32.4409 9.57277C33.3821 9.57277 34.1537 8.80117 34.1537 7.86C34.1537 6.91882 33.3906 6.14723 32.4409 6.14723Z" fill="#024A3F"></path><path d="M35.0864 14.2024C34.8151 14.2024 34.5353 14.1939 34.2554 14.1854C33.7891 14.1685 33.4245 13.7699 33.4414 13.3036C33.4584 12.8372 33.8315 12.4642 34.3233 12.4896C37.6386 12.6168 40.1484 11.9215 41.7764 10.4038C42.9804 9.28453 43.4213 7.95331 43.5739 7.1902C41.0133 6.58819 38.2321 8.52141 38.1982 8.54685C37.8166 8.81818 37.2825 8.72491 37.0196 8.34335C36.7483 7.96179 36.8416 7.43609 37.2231 7.16476C37.3842 7.04605 41.2676 4.34972 44.8373 5.82507C45.1595 5.96074 45.3715 6.28294 45.363 6.63058C45.363 6.74081 45.2698 9.46259 42.9634 11.6247C41.132 13.3375 38.4865 14.2024 35.0864 14.2024Z" fill="#024A3F"></path><path d="M21.6471 14.1855C21.5453 14.1855 21.4436 14.1685 21.3418 14.1261C20.9009 13.9565 20.6889 13.4647 20.85 13.0323C21.2401 12.0063 22.2491 11.3195 23.3514 11.3195C23.5718 11.3195 23.7923 11.345 24.0127 11.4043C24.7504 11.5739 25.2676 10.9804 25.2676 10.4123C25.2676 10.1494 25.1744 9.92897 24.9709 9.73396C24.4791 9.23369 24.2162 8.56385 24.2162 7.86008C24.2162 7.14784 24.4875 6.478 24.9709 5.97773C25.1659 5.77424 25.2676 5.55378 25.2676 5.30789C25.2676 4.98568 25.115 4.67196 24.8606 4.47694C24.691 4.34976 24.4112 4.21409 24.0212 4.31584C23.7923 4.37519 23.5718 4.40063 23.3598 4.40063C22.1558 4.40063 21.1044 3.61208 20.7568 2.44197C20.5617 1.75516 19.9767 1.70429 19.7986 1.70429C19.6206 1.70429 19.027 1.75516 18.832 2.43349C18.442 3.82405 16.9836 4.67196 15.576 4.31584C15.4913 4.29888 15.3895 4.28192 15.2962 4.28192C14.8299 4.28192 14.5246 4.60413 14.3975 4.90937C14.3211 5.08743 14.194 5.55378 14.6094 5.97773C15.1012 6.49496 15.3641 7.1648 15.3641 7.86008C15.3641 8.55537 15.1012 9.21673 14.6179 9.72548C14.4229 9.92897 14.3211 10.1579 14.3211 10.4123C14.3211 10.726 14.4738 11.0482 14.7281 11.2432C14.8977 11.3704 15.1775 11.5061 15.576 11.4043C16.9327 11.0652 18.2639 11.8028 18.7303 13.0323C18.8998 13.4732 18.6794 13.9565 18.2385 14.1261C17.806 14.2957 17.3143 14.0752 17.1447 13.6343C16.9751 13.1849 16.5257 12.9051 15.983 13.0408C15.1521 13.2528 14.3381 13.0747 13.6852 12.566C13.0238 12.0487 12.6253 11.2347 12.6253 10.3953C12.6253 9.69156 12.8882 9.05563 13.3884 8.53841C13.558 8.36035 13.6598 8.0975 13.6598 7.84313C13.6598 7.58027 13.558 7.3259 13.38 7.13088C12.6169 6.35081 12.4049 5.24006 12.8288 4.23105C13.3461 3.01006 14.6603 2.3487 15.9661 2.65394C16.5003 2.79809 17.0344 2.47588 17.1871 1.95866C17.5262 0.771594 18.5437 0 19.7817 0C20.9942 0 22.0371 0.788552 22.3678 1.95866C22.495 2.39109 22.8935 2.69634 23.3429 2.69634C23.4192 2.69634 23.4955 2.68786 23.5888 2.66242C24.3943 2.45045 25.2337 2.62003 25.8866 3.12877C26.5564 3.64599 26.955 4.4515 26.955 5.29093C26.955 5.99469 26.6836 6.6391 26.1749 7.15632C25.9968 7.33438 25.9036 7.58875 25.9036 7.86008C25.9036 8.12293 26.0053 8.36883 26.1834 8.55537C26.6921 9.07259 26.955 9.717 26.955 10.4123C26.955 12.1335 25.4202 13.4817 23.6057 13.0577C23.504 13.0323 23.4277 13.0238 23.3429 13.0238C22.9359 13.0238 22.5628 13.2782 22.4187 13.6513C22.3084 13.982 21.9947 14.1855 21.6471 14.1855Z" fill="#024A3F"></path><path d="M19.8071 11.2686C17.9247 11.2686 16.3985 9.74235 16.3985 7.86C16.3985 5.97765 17.9247 4.45142 19.8071 4.45142C21.681 4.45142 23.2157 5.97765 23.2157 7.86C23.2157 9.74235 21.6895 11.2686 19.8071 11.2686ZM19.8071 6.14723C18.8659 6.14723 18.0943 6.91034 18.0943 7.86C18.0943 8.80965 18.8659 9.57277 19.8071 9.57277C20.7483 9.57277 21.5199 8.80117 21.5199 7.86C21.5199 6.91882 20.7483 6.14723 19.8071 6.14723Z" fill="#024A3F"></path><path d="M17.1616 14.2023C13.7615 14.2023 11.1161 13.3374 9.29306 11.6246C6.98675 9.46247 6.89348 6.74917 6.89348 6.63046C6.885 6.28282 7.09698 5.96062 7.41918 5.82495C10.9889 4.35808 14.8638 7.05442 15.0334 7.16464C15.4149 7.43597 15.5082 7.96167 15.2369 8.34323C14.9656 8.72479 14.4398 8.81806 14.0583 8.54673C14.0244 8.52977 11.2348 6.59655 8.68256 7.19008C8.84367 7.94472 9.2761 9.28441 10.4801 10.4036C12.1081 11.9129 14.6179 12.6082 17.9332 12.4895C18.4165 12.4641 18.7981 12.8371 18.815 13.3035C18.832 13.7698 18.4674 14.1683 18.0011 14.1853C17.7128 14.2023 17.433 14.2023 17.1616 14.2023Z" fill="#024A3F"></path></svg> 