<svg xmlns="http://www.w3.org/2000/svg" width="64" height="64" viewBox="0 0 64 64" fill="none"><mask id="mask0_5_173" style="mask-type:luminance" maskUnits="userSpaceOnUse" x="0" y="0" width="64" height="64"><path d="M0 0H64V64H0V0Z" fill="white"></path></mask><g mask="url(#mask0_5_173)"><path d="M51.1771 26.8148V14.385C51.1771 12.7234 52.5454 11.3761 54.2335 11.3761C54.2495 11.3761 54.3376 11.3779 54.3397 11.378C55.0455 11.4018 55.6905 11.6611 56.1962 12.0785" stroke="#024A3F" stroke-width="2" stroke-miterlimit="10" stroke-linecap="round" stroke-linejoin="round"></path><path d="M47.8195 40.3459L55.8701 31.9786C56.649 31.2001 56.9575 30.1389 56.7987 29.1363C56.6933 28.4707 56.3818 27.8308 55.865 27.3167C55.8548 27.3066 55.5947 27.0752 55.594 27.0746C54.2617 26.0069 52.298 26.0926 51.068 27.3217L41.9892 36.1283C40.8671 37.2169 40.2336 38.7138 40.2336 40.2773V43.8752C40.2336 45.6159 40.7617 47.3158 41.7481 48.7501L42.7575 50.2182V60.0001H53.07V51.3671L60.7996 44.9262C62.0376 43.8944 62.7525 42.3657 62.75 40.7541C62.7383 32.8407 62.7251 13.8789 62.7251 10.7742C62.7251 9.29831 61.1375 8.22843 59.5688 8.30106C57.925 8.37718 56.6602 9.77119 56.6602 11.3916V28.5534" stroke="#024A3F" stroke-width="2" stroke-miterlimit="10" stroke-linecap="round" stroke-linejoin="round"></path><path d="M12.8229 26.8148V14.385C12.8229 12.7234 11.4546 11.3761 9.76649 11.3761C9.75049 11.3761 9.66237 11.3779 9.66024 11.378C8.95449 11.4018 8.30949 11.6611 7.80374 12.0785" stroke="#024A3F" stroke-width="2" stroke-miterlimit="10" stroke-linecap="round" stroke-linejoin="round"></path><path d="M16.1805 40.3459L8.12991 31.9786C7.35104 31.2001 7.04254 30.1389 7.20129 29.1363C7.30666 28.4707 7.61816 27.8308 8.13504 27.3167C8.14516 27.3066 8.40529 27.0752 8.40604 27.0746C9.73829 26.0069 11.702 26.0926 12.932 27.3217L22.0108 36.1283C23.1329 37.2169 23.7664 38.7138 23.7664 40.2773V43.8752C23.7664 45.6159 23.2383 47.3158 22.2519 48.7501L21.2425 50.2182V60.0001H10.93V51.3671L3.20041 44.9262C1.96241 43.8944 1.24754 42.3657 1.25004 40.7541C1.26166 32.8407 1.27491 13.8789 1.27491 10.7742C1.27491 9.29831 2.86254 8.22843 4.43116 8.30106C6.07504 8.37718 7.33979 9.77119 7.33979 11.3916V28.5534" stroke="#024A3F" stroke-width="2" stroke-miterlimit="10" stroke-linecap="round" stroke-linejoin="round"></path><path d="M38.0813 3.99995C35.4249 3.99995 33.4352 5.19682 32.0654 6.7427C32.0424 6.76582 32.0214 6.7902 32.0004 6.81545C30.6267 5.2347 28.6159 3.99995 25.9187 3.99995C21.1129 3.99995 17.3857 8.00057 17.3857 13.1368C17.3857 19.4094 23.0254 21.8018 30.3816 28.271C30.8719 28.6666 31.4117 28.8641 32.0004 28.8641C32.0214 28.8641 32.0444 28.8641 32.0654 28.8619C32.6293 28.8492 33.1459 28.6518 33.6184 28.271C40.9746 21.8018 46.6144 19.4094 46.6144 13.1368C46.6144 8.00057 42.8871 3.99995 38.0813 3.99995Z" stroke="#024A3F" stroke-width="2" stroke-miterlimit="10" stroke-linecap="round" stroke-linejoin="round"></path></g></svg>