<svg xmlns="http://www.w3.org/2000/svg" width="559" height="237" viewBox="0 0 559 237" fill="none"><g clip-path="url(#clip0_104_900)"><path d="M457.224 438.375C453.989 428.004 450.299 418.476 448.093 408.489C444.301 391.325 439.568 374.366 436.024 357.155C429.544 325.71 413.524 299.818 387.892 281.293C349.491 253.544 335.201 215.069 332.995 170.119C332.381 157.594 332.944 145.006 330.323 132.601C328.657 124.718 326.424 117.153 321.785 110.417C320.752 108.916 318.144 107.09 320.383 105.213C322.355 103.561 324.131 106.049 325.67 107.156C333.699 112.942 340.105 120.477 347.078 127.387C355.847 136.076 364.557 144.845 372.941 153.902C393.39 175.992 404.225 202.296 407.238 232.116C409.766 257.135 412.736 282.129 425.686 304.533C427.215 307.179 428.106 310.353 431.911 312.898C432.102 309.43 432.615 306.787 432.334 304.232C429.038 274.155 430.181 243.972 430.701 213.855C431.043 193.959 427.533 174.213 429.444 154.317C432.484 122.671 441.532 93.2301 463.064 69.0898C483.905 45.722 508.163 26.9863 539.376 19.0533C542.681 18.2138 545.856 16.8326 549.061 15.6152C551.112 14.8359 553.08 14.2807 554.468 16.5984C555.568 18.4312 555.182 20.3208 553.593 21.5382C538.809 32.8826 536.573 50.2772 532.433 66.4376C524.207 98.5545 507.656 125.086 481.941 146.022C458.991 164.708 443.963 187.651 441.941 218.086C440.989 232.45 440.567 246.798 440.232 261.172C439.467 293.958 444.144 326.329 447.399 358.807C447.623 361.055 448.136 363.382 449.065 365.422C450.007 367.496 448.904 371.6 452.203 371.275C454.824 371.018 454.653 367.132 454.952 364.817C458.277 339.272 462.669 313.851 463.694 288.035C464.066 278.677 465.957 269.487 468.247 260.373C474.103 237.062 488.676 219.962 506.989 205.423C513.976 199.878 521.113 194.484 527.72 188.514C538.494 178.781 545.249 166.999 544.532 151.882C544.441 149.962 543.945 147.28 546.976 147.206C549.255 147.15 549.647 149.277 549.839 151.183C553.67 189.263 550.898 226.052 528.957 259.189C519.698 273.172 507.677 284.858 497.05 297.7C467.549 333.342 458.773 374.192 466.437 419.061C468.331 430.145 472.759 440.462 478.763 450.077C482.129 455.465 484.469 461.194 486.396 467.419C488.585 474.492 495.89 478.82 501.471 483.803C503.513 485.626 504.093 483.241 503.922 481.562C503.479 477.248 502.893 472.95 502.35 468.646C500.298 452.442 505.095 436.894 507.053 421.081C507.67 416.101 507.502 411.72 504.898 407.302C502.454 403.158 501.116 398.513 500.426 393.71C497.868 375.857 506.825 363.476 523.754 361.523C540.362 359.606 555.061 370.7 556.654 386.355C558.353 403.061 546.101 418.706 530.047 419.369C523.496 419.64 520.389 422.098 518.079 428.111C507.328 456.111 510.898 499.472 544.793 524.927C554.562 532.261 560.395 540.87 558.702 553.371C558.102 557.803 558.008 562.793 552.396 564.465C546.707 566.16 542.634 563.696 539.393 559.261C533.06 550.602 527.764 541.284 521.113 532.779C504.884 512.034 482.551 505.325 457.751 503.82C450.292 503.368 444.05 507.174 438.24 511.308C434.667 513.85 435.988 518.044 436.142 521.549C436.648 533.1 432.669 542.552 423.648 549.853C414.459 557.288 404.349 557.829 394.007 553.067C383.618 548.284 377.01 540.502 375.73 528.552C373.122 504.214 397.989 489.161 418.653 497.98C421.17 499.054 423.383 498.974 425.917 498.198C443.809 492.716 461.807 491.482 479.943 497.127C482.028 497.776 484.2 498.592 486.959 497.174C480.982 490.579 474.499 484.923 467.727 479.636C437.556 456.074 403.799 445.803 366.072 455.613C344.054 461.338 324.393 472.576 310.632 491.418C294.111 514.037 272.466 529.442 246.22 538.224C220.629 546.786 194.685 554.301 168.849 562.117C166.539 562.816 163.14 565.15 161.581 561.512C159.899 557.585 163.75 556.371 166.362 555.415C177.629 551.281 184.32 542.465 190.371 532.856C197.793 521.077 204.652 508.943 214.28 498.649C234.165 477.385 259.033 465.706 287.313 460.944C311.426 456.883 335.529 452.974 358.566 444.399C359.367 444.101 360.125 443.69 361.355 443.124C359.76 440.218 357.024 440.382 354.842 439.713C334.329 433.425 313.203 433.964 292.164 434.71C260.612 435.83 230.046 442.656 200.056 452.168C180.85 458.258 164.495 468.713 151.558 484.321C146.744 490.127 141.565 495.626 136.637 501.341C117.861 523.127 93.6134 534.91 65.6519 539.582C47.717 542.579 30.4426 547.605 13.6442 554.465C11.7904 555.221 9.20242 557.585 7.55308 554.859C5.86687 552.077 9.29963 551.094 10.7814 549.716C24.1001 537.345 31.5455 520.83 41.6024 506.184C56.4833 484.512 72.7856 464.679 96.3757 451.542C113.6 441.95 131.672 435.238 151.206 436.298C190.974 438.462 229.643 431.904 268.406 424.8C284.893 421.777 301.681 422.148 318.402 423.098C320.99 423.245 323.602 424.215 327.775 422.834C313.87 413.74 300.601 406.516 285.184 404.369C278.868 403.489 272.375 403.332 265.992 403.589C226.693 405.178 191.517 393.6 159.925 370.697C139.929 356.202 119.875 341.77 100.633 326.269C98.7492 324.75 96.2617 323.674 96.1478 319.998C105.279 322.784 113.553 327.158 122.909 328.199C131.88 329.199 140.743 328.098 149.654 328.065C178.091 327.954 206.472 328.282 233.106 340.479C249.308 347.901 263.984 357.379 275.996 370.687C286.062 381.84 297.775 390.797 311.299 397.479C315.154 399.385 318.912 401.827 322.093 404.707C347.276 427.519 378.154 436.733 410.748 441.452C421.378 442.991 431.164 447.596 441.754 449.011C442.293 446.69 440.745 445.723 439.746 444.593C420.352 422.603 399.303 402.305 376.669 383.663C370.303 378.419 363.222 374.202 355.623 370.867C347.376 367.249 339.706 366.519 331.65 372.125C323.236 377.978 314.286 377.014 306.032 371.068C298.369 365.546 294.758 356.443 296.756 348.316C300.407 333.456 317.755 327.623 329.981 337.138C334.436 340.603 337.671 345.051 339.589 350.259C342.348 357.747 348.68 360.011 355.435 361.861C356.501 362.152 357.849 362.606 358.331 361.222C358.563 360.556 357.929 359.55 357.587 358.74C357.416 358.339 357.058 357.988 356.716 357.693C331.959 336.349 312.063 309.827 285.188 290.754C260.86 273.487 233.921 264.754 203.894 267.246C192.573 268.186 182.091 272.975 172.027 277.59C120.174 301.386 69.8154 293.152 19.8192 271.891C14.137 269.473 8.50514 266.931 2.87662 264.39C1.49547 263.768 -0.505857 263.329 0.104262 261.182C0.556823 259.59 2.24974 259.543 3.58731 259.731C31.093 263.627 54.5289 251.691 78.1962 240.674C93.9721 233.333 109.741 226.657 127.485 224.604C154.337 221.497 178.397 227.788 200.378 242.684C208.876 248.443 217.783 252.634 227.793 254.674C237.451 256.641 246.814 259.604 256.036 263.069C257.628 263.667 259.241 265.079 261.457 263.634C261.152 262.878 261.054 261.831 260.481 261.343C240.759 244.684 224.015 224.661 202.412 210.132C199.952 208.477 197.525 206.634 194.823 205.49C173.663 196.534 153.757 185.096 134.733 172.507C89.6275 142.665 51.6727 106.173 29.4637 55.4711C21.9009 38.1936 15.5953 20.1168 3.70799 4.96306C2.89338 3.92627 1.6832 2.81925 2.71571 1.36441C3.77503 -0.133905 5.46795 -0.177383 7.0737 0.197197C8.16655 0.45472 9.24935 0.922945 10.2282 1.48147C37.0165 16.8326 64.73 30.5816 90.7707 47.2136C127.378 70.5948 155.876 101.575 176.687 139.645C186.871 158.28 197.602 176.641 208.38 194.908C214.119 204.634 223.666 212.407 232.412 220.009C246.019 231.838 256.77 246.667 272.285 257.105C273.367 253.905 271.393 251.43 270.276 249.045C260.887 228.989 250.327 209.417 242.04 188.925C224.719 146.079 222.53 102.651 242.764 60.0096C251.906 40.7421 264.608 23.5951 280.541 9.09012C281.721 8.0132 282.874 6.84933 284.229 6.03328C286.103 4.90285 288.322 2.99986 290.219 5.66874C291.885 8.00986 289.777 9.46136 288.101 10.6219C279.338 16.6854 276.683 25.5683 276.17 35.5816C275.432 50.0431 278.49 64.0329 283.984 77.0429C299.908 114.758 297.021 152.063 280.682 188.119C269.884 211.942 272.586 233.343 283.153 255.761C292.687 275.995 305.918 292.951 322.639 307.724C337.349 320.724 351.154 334.744 365.365 348.306C366.853 349.724 368.328 351.168 369.93 352.449C370.943 353.259 372.093 354.61 373.521 353.717C374.888 352.864 374.339 351.219 374.074 349.964C371.848 339.49 373.474 336.523 360.819 334.289C351.208 332.59 342.472 318.466 343.88 309.075C345.345 299.292 353.41 292.313 363.367 292.206C379.605 292.032 391.824 309.71 385.157 324.326C381.07 333.289 381.201 342.259 384.285 351.001C388.787 363.76 395.338 375.422 405.009 385.299C419.873 400.479 435.471 414.974 448.891 431.539C450.925 434.051 452.876 436.991 457.228 438.379L457.224 438.375Z" fill="#006354"></path><path d="M371.167 86.9257C352.703 86.3939 342.642 75.9224 343.34 57.9593C343.92 43.0463 355.918 32.5815 371.935 33.023C386.464 33.421 397.66 46.5848 397.003 62.4977C396.417 76.7251 385.197 87.3303 371.164 86.929L371.167 86.9257Z" fill="#006354"></path><path d="M157.602 36.0632C157.19 15.6252 170.639 7.59511 185.121 7.10347C198.507 6.64862 210.451 21.1101 210.039 36.0699C209.666 49.4878 196.78 60.7587 182.65 60.0229C167.853 59.2503 157.109 48.9761 157.602 36.0665V36.0632Z" fill="#006354"></path><path d="M59.8487 182.263C59.5268 196.474 49.2018 206.965 35.7154 206.778C20.4658 206.567 8.79309 194.577 9.13502 179.477C9.48702 163.872 19.8758 153.865 35.4741 154.106C48.6821 154.31 60.1772 167.588 59.8487 182.26V182.263Z" fill="#006354"></path></g><defs><clipPath id="clip0_104_900"><rect width="559" height="237" fill="white"></rect></clipPath></defs></svg>