<svg xmlns="http://www.w3.org/2000/svg" width="201" height="59" viewBox="0 0 201 59" fill="none"><path d="M198.312 35.6931C197.944 35.9151 197.694 36.2672 197.373 36.5424C196.337 37.4275 195.157 38.08 193.956 38.702C192.678 39.3638 191.365 39.9566 190.139 40.7168C188.359 41.8198 187.001 43.3123 185.959 45.1131C185.397 46.0846 184.944 47.1053 184.544 48.1525C184.496 48.2761 184.48 48.421 184.318 48.5433C184.284 48.1592 184.227 47.8083 184.227 47.4575C184.227 45.2327 184.747 43.1249 185.774 41.158C186.649 39.4834 188.036 38.302 189.666 37.3916C191.113 36.5835 192.661 35.9988 194.187 35.3648C195.188 34.9489 196.18 34.5116 197.083 33.8976C198.183 33.1494 199.056 32.2204 199.504 30.9406C199.533 30.8582 199.581 30.7838 199.634 30.6801C199.926 30.9911 200.061 31.3606 200.21 31.7141C200.75 32.9912 200.959 34.3349 200.994 35.7131C201.057 38.2554 200.631 40.7008 199.51 42.9987C198.171 45.7391 195.997 47.4973 193.097 48.3958C191.755 48.8117 190.37 49.0563 189.025 49.4576C188.099 49.7341 187.214 50.0995 186.484 50.7574C185.574 51.5774 185.119 52.6419 184.867 53.8128C184.856 53.8646 184.86 53.9204 184.844 53.9709C184.71 54.3789 184.704 54.7697 185.045 55.1445C184.581 55.292 184.117 54.9717 183.728 55.3571C183.189 54.5052 182.686 53.7131 182.189 52.917C180.915 50.8823 179.729 48.8011 178.695 46.6348C177.225 43.5582 176.205 40.3367 175.558 36.9902C175.182 35.0472 174.964 33.0949 175.041 31.1147C175.12 29.0999 175.482 27.1303 176.001 25.1873C176.564 23.0769 177.302 21.0196 177.948 18.9357C178.442 17.3382 178.851 15.7208 179.056 14.0622C179.311 11.9996 179.194 9.9516 178.677 7.93284C178.661 7.86904 178.671 7.79329 178.591 7.75342C178.513 7.98334 178.56 8.21592 178.59 8.43919C178.724 9.4891 178.618 10.5337 178.501 11.5717C178.203 14.2204 177.379 16.7309 176.445 19.2121C175.601 21.4541 174.688 23.6709 173.994 25.9661C173.417 27.8746 173.013 29.8123 172.874 31.8071C172.722 33.988 172.972 36.129 173.384 38.2621C173.885 40.8536 174.73 43.3349 175.772 45.7537C175.807 45.8348 175.835 45.9185 175.863 46.0022C175.867 46.0155 175.853 46.0341 175.828 46.1085C175.65 45.9464 175.49 45.7989 175.328 45.6514C172.734 43.2937 170.839 40.4456 169.412 37.2627C168.645 35.5549 168.015 33.8099 167.733 31.9506C167.516 30.5206 167.498 29.0866 167.632 27.6486C167.899 24.7846 168.831 22.1093 169.948 19.4859C170.762 17.5748 171.685 15.7128 172.545 13.8217C173.399 11.9451 174.201 10.0486 174.682 8.03517C175.226 5.7639 175.283 3.50193 174.495 1.26654C174.418 1.04859 174.32 0.838603 174.245 0.620646C174.179 0.422624 174.027 0.257827 174.01 0C174.587 0.0850564 175.105 0.307 175.623 0.515654C177.505 1.27319 179.176 2.38025 180.716 3.68533C183.959 6.43372 186.508 9.73098 188.435 13.5093C189.464 15.5268 190.261 17.6346 190.685 19.8647C191.498 24.1454 191.03 28.2733 189.151 32.2271C188.209 34.2073 187.02 36.0373 185.8 37.8514C184.758 39.3984 183.697 40.9347 182.882 42.6199C182.089 44.2599 181.624 45.9703 181.759 47.8137C181.878 49.4217 182.411 50.8969 183.173 52.2977C183.468 52.8386 183.778 53.3742 184.195 53.8978C184.38 53.3689 184.435 52.8572 184.541 52.3602C184.964 50.3919 185.54 48.4755 186.471 46.6813C187.241 45.1942 188.103 43.7668 189.319 42.588C190.334 41.6019 191.506 40.835 192.732 40.1413C193.922 39.4675 195.136 38.8322 196.232 38.0029C197.004 37.4182 197.664 36.7271 198.21 35.9284C198.26 35.8553 198.311 35.7822 198.308 35.6865C198.414 35.6479 198.408 35.5562 198.408 35.4685C198.464 35.4645 198.477 35.4512 198.446 35.4366C198.444 35.4366 198.428 35.4632 198.417 35.4778C198.348 35.5323 198.299 35.5961 198.315 35.6918L198.312 35.6931Z" fill="#23D875"></path><path d="M69.4755 33.6677C67.5671 35.1841 65.4792 36.3709 63.1494 37.1191C62.4012 37.3597 61.6384 37.5218 60.8582 37.5883C60.0329 37.6587 59.2169 37.5777 58.4727 37.1829C56.9935 36.3975 56.5935 35.0366 56.8101 33.584C56.8779 33.1308 57.028 32.6962 57.1822 32.1819C56.2466 32.954 55.3854 33.6863 54.4657 34.3455C52.5586 35.7117 50.5013 36.7736 48.2114 37.3451C47.2758 37.579 46.3309 37.6906 45.3634 37.5205C44.053 37.2893 42.7372 36.2739 42.6602 34.5369C42.6243 33.7408 42.7997 32.9926 43.0735 32.2032C42.8874 32.2284 42.809 32.3493 42.7133 32.4304C41.1743 33.7501 39.6101 35.0379 37.8252 36.0227C36.7461 36.6181 35.6204 37.0873 34.3831 37.2481C33.7226 37.3344 33.0687 37.3225 32.4241 37.1657C31.232 36.8759 30.7523 35.9908 31.1031 34.7588C31.3649 33.8378 31.9484 33.1228 32.6235 32.4822C33.7917 31.3739 35.1499 30.5286 36.5241 29.7073C37.1195 29.3511 37.683 28.9471 38.2292 28.5205C38.5801 28.2467 38.911 27.9463 39.1569 27.5702C39.5383 26.9881 39.4479 26.511 38.8991 26.0871C38.6864 25.9223 38.4472 25.8027 38.204 25.6963C37.699 25.4744 37.2046 25.2365 36.7634 24.8538C36.2344 25.4996 35.7201 26.1309 35.2018 26.7595C33.9698 28.2533 32.7205 29.7339 31.3184 31.0748C31.0752 31.3074 30.8307 31.5426 30.5024 31.6623C30.2858 31.7407 30.0771 31.7633 29.9323 31.544C29.7967 31.338 29.9203 31.1612 30.0519 31.0177C30.218 30.8356 30.42 30.6841 30.5954 30.51C31.2653 29.8482 31.8806 29.1332 32.4919 28.4181C33.4501 27.2978 34.4589 26.22 35.348 25.0411C35.6045 24.7009 35.8543 24.3554 36.0204 23.9234C35.6922 23.3068 35.8211 22.7101 36.2012 22.1412C36.3766 21.8781 36.6225 21.7093 36.9295 21.6376C37.4757 21.5113 37.9302 21.8382 37.99 22.3951C38.0299 22.7632 37.9369 23.1008 37.7455 23.4118C37.6432 23.5779 37.5235 23.7334 37.3986 23.9128C37.6285 24.2863 38.0007 24.4843 38.3821 24.6703C38.701 24.8258 39.0346 24.9534 39.3416 25.1302C40.3238 25.6963 40.6148 26.5243 40.2015 27.5742C39.8506 28.466 39.2433 29.1876 38.624 29.8987C37.8412 30.7971 36.984 31.625 36.1653 32.4889C35.6031 33.0816 35.0556 33.689 34.5333 34.3176C34.1678 34.7588 33.8887 35.2572 33.9246 35.8672C33.9286 35.9363 33.9525 36.0041 33.9685 36.0746C34.2608 36.3098 34.5825 36.23 34.8895 36.1689C35.4144 36.0639 35.9088 35.8606 36.3926 35.6386C37.9169 34.9369 39.323 34.0412 40.6347 32.9966C41.9013 31.9892 43.128 30.9366 44.2523 29.7697C44.4237 29.5917 44.5792 29.395 44.7321 29.1996C46.7867 26.5828 49.3411 24.6411 52.4722 23.4782C53.2111 23.2045 53.974 23.0556 54.7701 23.0915C55.0412 23.1034 55.3017 23.15 55.5475 23.2523C56.0579 23.4636 56.2399 23.8331 56.1004 24.366C55.9954 24.766 55.7974 25.1235 55.5648 25.4611C54.9388 26.3755 54.1813 27.1715 53.3719 27.9238C51.5618 29.6063 49.4952 30.8516 47.1362 31.6024C46.7641 31.7207 46.3854 31.8164 45.9747 31.9334C45.7474 32.2337 45.7142 32.6298 45.6292 33.0045C45.5295 33.4418 45.5202 33.8937 45.6052 34.3282C45.7979 35.3024 46.4398 35.8619 47.3781 36.1051C48.2353 36.3284 49.07 36.1809 49.8953 35.927C51.2017 35.5257 52.3685 34.8519 53.4729 34.0664C54.9242 33.0351 56.2267 31.8244 57.5517 30.6389C58.357 29.9186 58.9219 29.0096 59.6422 28.2281C61.661 26.0379 64.012 24.3354 66.8667 23.3879C67.5126 23.1739 68.1731 23.0529 68.8575 23.0928C68.8934 23.0955 68.9293 23.0915 68.9639 23.0941C70.0776 23.1991 70.5613 23.7347 70.0284 24.8471C69.7187 25.493 69.2748 26.0512 68.799 26.5801C66.9557 28.6321 64.8054 30.2548 62.2138 31.2582C61.5188 31.5267 60.8091 31.75 60.0635 31.9214C59.7419 32.6524 59.5851 33.4126 59.6927 34.2007C59.8163 35.1084 60.3519 35.7064 61.2131 36.0174C61.9786 36.2938 62.7481 36.242 63.5229 36.0573C64.6778 35.7822 65.7184 35.2492 66.7231 34.6379C67.805 33.98 68.7831 33.1813 69.7387 32.3573C70.3846 31.8005 71.0118 31.2237 71.6484 30.6562C72.1176 30.2376 72.4485 29.7073 72.8193 29.2089C74.0486 27.5556 75.254 25.8824 76.5259 24.261C76.5923 24.1773 76.6561 24.0922 76.7252 24.0112C77.2156 23.433 77.9054 23.2417 78.6377 23.4849C78.6829 23.4995 78.7174 23.55 78.7639 23.5885C78.7573 23.8583 78.5659 24.0364 78.4476 24.2477C78.2151 24.6624 77.8562 24.9986 77.6994 25.4598C77.6795 25.4704 77.6609 25.481 77.6622 25.481C77.6622 25.481 77.6768 25.4664 77.6914 25.4505C78.5061 24.9481 79.2836 24.382 80.1647 23.9899C80.9329 23.6483 81.713 23.3879 82.5729 23.3865C84.0773 23.3839 84.8627 24.261 84.4587 25.8877C84.1863 26.9828 83.5563 27.8839 82.8227 28.7212C81.6279 30.0847 80.4544 31.4656 79.4484 32.978C79.0736 33.5415 78.752 34.1315 78.5008 34.7615C78.1553 35.6307 78.5872 35.9815 79.362 35.7955C79.7288 35.7077 80.0717 35.5735 80.4066 35.4074C81.5296 34.8519 82.5064 34.0797 83.4925 33.3222C84.7471 32.356 85.9073 31.2822 87.0516 30.191C87.3081 29.9465 87.5194 29.6594 87.7042 29.3524C89.6631 26.095 91.6154 22.835 93.698 19.6547C95.3911 17.0671 97.1375 14.5154 99.1163 12.1338C99.9456 11.1357 100.819 10.1735 101.839 9.36285C102.299 8.99738 102.786 8.67842 103.348 8.47508C104.366 8.10827 105.286 8.79404 105.272 9.78946C105.264 10.4021 105.155 10.9856 104.955 11.561C104.391 13.1824 103.543 14.6616 102.622 16.0969C100.307 19.7078 97.7302 23.1194 94.8024 26.2638C93.0175 28.1816 91.1117 29.9571 88.9893 31.4975C88.8604 31.5918 88.7368 31.7008 88.5933 31.7672C87.8783 32.1021 87.445 32.6803 87.1407 33.3833C87.0609 33.568 86.9905 33.7355 87.0569 33.9415C87.1154 34.1262 87.1314 34.3242 87.1885 34.5103C87.5912 35.7994 88.1853 35.9988 89.2418 36.0945C90.006 36.1636 90.717 35.9337 91.4041 35.6187C92.4142 35.1575 93.3006 34.505 94.1844 33.8458C95.8111 32.6324 97.1441 31.1386 98.3668 29.5372C99.5323 28.0101 100.802 26.5722 102.113 25.1701C102.525 24.7302 102.932 24.2836 103.367 23.8636C103.775 23.4716 104.24 23.4636 104.741 23.5434C104.827 23.8105 104.652 23.9434 104.549 24.0936C103.558 25.5462 102.547 26.9841 101.571 28.4474C100.626 29.8654 99.6878 31.2901 98.9263 32.8211C98.6166 33.4431 98.3655 34.0864 98.2432 34.7735C98.2153 34.9303 98.1993 35.0911 98.202 35.2492C98.2126 35.737 98.4837 35.9536 98.9715 35.8606C99.519 35.7556 100.015 35.5164 100.495 35.2426C101.875 34.4571 103.117 33.4763 104.325 32.4557C104.908 31.9626 105.472 31.4456 106.047 30.9433C106.91 30.1924 107.593 29.2833 108.341 28.4288C110.39 26.0897 112.848 24.3208 115.834 23.3467C116.464 23.1407 117.114 23.0503 117.778 23.0902C117.814 23.0928 117.85 23.0902 117.885 23.0928C118.993 23.1739 119.365 23.7839 118.911 24.7939C118.54 25.6166 117.95 26.2877 117.341 26.9336C115.639 28.7371 113.686 30.1924 111.375 31.1386C110.584 31.4616 109.774 31.7128 108.922 31.9307C108.587 32.7108 108.427 33.5242 108.592 34.3615C108.78 35.3144 109.435 35.8539 110.344 36.0985C111.198 36.3297 112.036 36.1809 112.861 35.9257C114.393 35.4499 115.734 34.6206 116.999 33.6597C118.176 32.7667 119.264 31.7726 120.364 30.7891C120.959 30.2575 121.393 29.6448 121.759 28.9404C123.236 26.0977 125.015 23.441 126.878 20.8402C128.358 18.7735 129.883 16.7428 131.544 14.8171C133.112 12.999 134.736 11.2341 136.702 9.82535C137.166 9.4931 137.662 9.21799 138.176 8.97345C138.703 8.72227 139.256 8.6319 139.836 8.68373C140.432 8.73689 140.765 9.09572 140.773 9.70042C140.778 10.0606 140.67 10.4021 140.552 10.737C140.256 11.5796 139.812 12.3478 139.339 13.1C138.184 14.9394 136.851 16.6485 135.475 18.3243C133.478 20.7551 131.387 23.1048 129.127 25.2963C127.467 26.9057 125.752 28.454 123.824 29.7432C123.656 29.8548 123.532 29.9824 123.452 30.1751C122.984 31.3074 122.535 32.4437 122.355 33.6677C122.293 34.0983 122.31 34.5183 122.434 34.9329C122.607 35.511 123.086 35.8752 123.688 35.9151C124.293 35.9563 124.847 35.7862 125.385 35.5376C126.606 34.9741 127.669 34.1714 128.729 33.3634C129.948 32.4344 131.06 31.3885 132.162 30.3306C132.995 29.5305 133.685 28.5936 134.493 27.7722C136.686 25.5435 139.183 23.8118 142.316 23.1686C142.932 23.0423 143.549 23.049 144.159 23.1991C144.303 23.1633 144.34 23.0357 144.405 22.9333C146.434 19.761 148.377 16.5355 150.455 13.3951C151.308 12.1046 152.223 10.8567 153.373 9.80541C153.861 9.3602 154.379 8.96149 155.03 8.77145C155.204 8.72094 155.377 8.69569 155.555 8.69835C156.358 8.70632 156.85 9.18078 156.886 9.98483C156.907 10.454 156.779 10.9005 156.638 11.3404C156.22 12.6535 155.542 13.8403 154.822 15.0032C153.443 17.2292 151.843 19.2905 150.138 21.2734C147.777 24.0231 145.354 26.717 142.879 29.3657C142.496 29.7751 142.293 30.2947 142.037 30.7785C141.428 31.9227 140.851 33.0816 140.527 34.3482C140.442 34.6804 140.413 35.014 140.447 35.3502C140.492 35.7875 140.685 35.9377 141.125 35.9044C141.542 35.8725 141.912 35.6918 142.274 35.5071C143.34 34.9622 144.285 34.2365 145.226 33.5069C145.367 33.3979 145.505 33.2863 145.645 33.1773C146.036 32.869 146.376 32.5447 146.584 32.0543C146.874 31.3752 147.385 30.8808 148.179 30.7997C148.333 30.7838 148.44 30.7067 148.545 30.6057C149.841 29.3644 151.138 28.1231 152.436 26.8845C152.989 26.3569 153.385 25.7601 153.515 24.9787C153.636 24.2557 153.97 23.6018 154.402 23.0024C154.581 22.7539 154.787 22.5373 155.032 22.3565C155.238 22.205 155.466 22.1226 155.728 22.1333C156.188 22.1506 156.45 22.3938 156.487 22.8549C156.548 23.6032 156.282 24.2504 155.85 24.8391C155.598 25.1833 155.308 25.497 154.998 25.792C154.818 25.9635 154.646 26.1429 154.465 26.325C154.36 26.8273 154.504 27.3124 154.605 27.7935C154.822 28.8355 155.048 29.8774 155.149 30.9379C155.273 32.2537 155.127 33.5268 154.431 34.6897C154.407 34.7309 154.392 34.7774 154.364 34.8412C154.548 34.8054 154.663 34.6937 154.79 34.6073C156.629 33.3488 158.317 31.9094 159.918 30.3651C160.289 30.0076 160.648 29.6382 161.013 29.274C161.076 29.2116 161.141 29.1491 161.213 29.0973C161.384 28.9737 161.569 28.9152 161.748 29.0707C161.933 29.2302 161.956 29.4362 161.86 29.6515C161.771 29.8508 161.602 29.989 161.453 30.1419C160.36 31.2622 159.186 32.2949 157.966 33.2757C156.622 34.3575 155.244 35.3914 153.732 36.2327C152.956 36.6646 152.162 37.0607 151.282 37.2507C150.38 37.4448 149.487 37.4448 148.591 37.2162C147.183 36.856 146.307 35.8287 146.179 34.3827C146.168 34.2618 146.196 34.1329 146.094 33.9973C145.893 33.9933 145.768 34.1634 145.625 34.2751C144.765 34.9369 143.892 35.5775 142.954 36.1251C142.324 36.4932 141.674 36.8175 140.971 37.0274C140.575 37.1457 140.179 37.2109 139.765 37.2042C138.532 37.1856 137.594 36.145 137.716 34.917C137.727 34.8133 137.735 34.7083 137.749 34.5515C137.008 35.1562 136.33 35.7569 135.579 36.2619C134.944 36.6885 134.298 37.0952 133.518 37.2122C132.133 37.4195 131.165 36.5703 130.929 35.3449C130.777 34.5555 130.876 33.7913 131.094 33.0325C131.145 32.8504 131.199 32.6683 131.266 32.4291C130.418 33.0976 129.64 33.7382 128.83 34.3402C127.418 35.3914 125.96 36.3736 124.306 37.0248C123.559 37.3185 122.798 37.5458 121.981 37.5232C121.618 37.5125 121.274 37.4341 120.948 37.2932C120.168 36.9544 119.802 36.3217 119.72 35.5004C119.622 34.5263 119.834 33.596 120.125 32.675C120.188 32.4756 120.305 32.2829 120.261 32.0583C120.273 32.0503 120.286 32.041 120.298 32.033C120.289 32.045 120.278 32.057 120.269 32.0676C119.482 32.7308 118.693 33.39 117.874 34.0146C116.097 35.3728 114.155 36.4174 112.025 37.1098C111.261 37.3584 110.482 37.5285 109.686 37.587C108.673 37.6614 107.702 37.5165 106.856 36.8879C106.096 36.3231 105.704 35.5576 105.634 34.6246C105.585 33.9641 105.662 33.3142 105.88 32.6869C105.926 32.5527 105.978 32.4211 105.963 32.2749C105.977 32.2709 105.993 32.2696 106.003 32.2616C106.01 32.2563 106.007 32.2417 106.009 32.2311C105.995 32.2483 105.983 32.2643 105.97 32.2816C105.527 32.453 105.24 32.8304 104.888 33.1175C103.479 34.2631 102.026 35.3396 100.448 36.2433C99.7675 36.6327 99.0592 36.9557 98.287 37.1285C97.8618 37.2228 97.4458 37.2215 97.0232 37.1085C96.0703 36.8533 95.5134 36.1636 95.4895 35.1868C95.4789 34.7296 95.4762 34.2737 95.6171 33.8126C95.12 34.1741 94.6256 34.5395 94.1259 34.8984C93.2448 35.531 92.3437 36.1304 91.3629 36.6035C90.5855 36.9783 89.7734 37.264 88.9136 37.26C87.8876 37.2547 86.9054 37.0102 86.0788 36.3404C85.9964 36.2739 85.9113 36.2088 85.825 36.1463C85.813 36.137 85.7904 36.1437 85.7372 36.141C85.6096 36.3709 85.4728 36.6155 85.3399 36.8613C83.5258 40.2383 81.713 43.6153 79.9002 46.9937C79.657 47.4469 79.4205 47.904 79.1826 48.3599C79.0909 48.5353 78.9952 48.6988 78.7905 48.7705C77.7685 49.1267 76.7585 49.5188 75.6953 49.7434C75.46 49.7926 75.2354 49.7859 75.0507 49.6038C74.9417 49.3832 75.0347 49.2104 75.2049 49.0935C76.2814 48.3493 76.89 47.2329 77.5426 46.1577C80.1395 41.877 82.7231 37.5883 85.3093 33.3009C85.3811 33.1826 85.49 33.075 85.4701 32.9168C85.5445 32.9168 85.5618 32.8637 85.5791 32.8079L85.6003 32.7946L85.5884 32.8185C85.5259 32.8278 85.4834 32.8557 85.4768 32.9235C84.7644 33.4484 84.0521 33.9761 83.3384 34.4997C82.2778 35.2771 81.2133 36.0493 80.0238 36.6261C79.5108 36.8759 78.9806 37.0753 78.4038 37.1218C77.5718 37.1896 76.813 36.9929 76.1804 36.4387C75.6355 35.9616 75.4454 35.329 75.4879 34.6206C75.5424 33.7169 75.9371 32.954 76.4754 32.2497C77.1612 31.3526 78.025 30.6416 78.8769 29.9146C80.174 28.8075 81.4711 27.6978 82.5197 26.3383C82.7483 26.0419 82.9583 25.7336 83.1031 25.3867C83.4062 24.6637 83.0048 24.1308 82.222 24.2291C81.8153 24.2809 81.4273 24.4072 81.0525 24.5786C80.1926 24.9747 79.4005 25.4784 78.635 26.0313C77.3073 26.9908 76.0461 28.0261 74.9311 29.2328C74.2413 29.9797 73.6911 30.8316 73.101 31.6543C71.8691 33.3714 70.6543 35.1017 69.3532 36.7696C68.9545 37.28 68.3525 37.3677 67.8209 36.9982C67.6322 36.8666 67.5684 36.7018 67.6654 36.4945C67.7478 36.3178 67.8408 36.145 67.9405 35.9775C68.3206 35.3343 68.7672 34.7362 69.1924 34.1236C69.2921 33.98 69.4317 33.8564 69.4569 33.6691L69.4795 33.6544L69.4622 33.6744L69.4755 33.6677ZM145.15 25.5528C145.286 25.4917 145.367 25.3721 145.461 25.2684C147.153 23.3985 148.825 21.5086 150.425 19.559C152.063 17.5628 153.534 15.4537 154.755 13.1771C155.174 12.3956 155.582 11.6075 155.749 10.7211C155.798 10.4619 155.805 10.2294 155.596 10.0367C155.27 9.92901 155.048 10.1177 154.832 10.3038C154.359 10.7131 153.97 11.1982 153.599 11.6979C152.307 13.4416 151.189 15.2982 150.09 17.1654C148.784 19.3836 147.495 21.611 146.199 23.8344C145.86 24.4152 145.428 24.9401 145.16 25.5634C145.142 25.5754 145.124 25.5887 145.121 25.59C145.124 25.5874 145.137 25.5701 145.15 25.5528ZM88.9561 29.9811C89.0877 30.0063 89.1315 29.9412 89.1833 29.9013C91.8706 27.8865 94.2283 25.5262 96.3839 22.9639C98.3548 20.6209 100.076 18.0971 101.665 15.4843C102.33 14.3918 102.957 13.2794 103.434 12.0873C103.586 11.7072 103.7 11.3192 103.776 10.9151C103.868 10.4274 103.569 9.95692 102.911 10.2187C102.645 10.3251 102.402 10.4686 102.172 10.6387C101.439 11.1823 100.817 11.8441 100.223 12.5285C98.311 14.7347 96.6311 17.1149 95.0137 19.5391C93.1597 22.3193 91.5131 25.2232 89.9223 28.1577C89.5967 28.7584 89.2817 29.3644 88.9548 29.9797L88.9561 29.9811ZM124.51 28.155C124.564 28.1151 124.617 28.0779 124.668 28.0367C126.305 26.7223 127.845 25.3003 129.333 23.8211C131.463 21.7 133.457 19.4553 135.356 17.1269C136.445 15.7913 137.505 14.4317 138.402 12.9552C138.751 12.3784 139.096 11.7936 139.264 11.1331C139.461 10.3636 139.135 10.042 138.365 10.2334C138.212 10.2719 138.06 10.3357 137.922 10.4114C137.659 10.5576 137.392 10.7038 137.15 10.8806C136.245 11.5451 135.437 12.3132 134.665 13.1293C132.607 15.3048 130.785 17.6652 129.093 20.1278C127.391 22.6064 125.952 25.2405 124.559 27.8998C124.522 27.9703 124.437 28.038 124.51 28.155ZM143.67 24.1454C143.206 23.8743 142.77 23.9341 142.336 24.0417C141.761 24.1839 141.231 24.4391 140.735 24.7527C137.979 26.4977 135.817 28.8142 134.18 31.625C133.775 32.3174 133.458 33.0524 133.273 33.8338C133.147 34.3668 133.019 34.9077 133.203 35.4605C133.403 36.0652 133.75 36.242 134.348 36.032C134.637 35.931 134.892 35.7702 135.14 35.5988C135.875 35.0911 136.508 34.4678 137.149 33.8511C137.906 33.1228 138.561 32.3321 139.092 31.4071C139.904 29.9917 140.829 28.6401 141.703 27.2606C142.349 26.2412 142.992 25.2206 143.67 24.1454ZM149.114 31.4496C149.135 32.6617 149.014 32.8544 147.949 33.3022C147.672 33.4192 147.475 33.6066 147.337 33.8657C146.996 34.5037 147.282 35.4353 147.967 35.8646C148.623 36.2766 149.286 36.2074 149.934 35.834C150.639 35.426 151.193 34.8559 151.66 34.1967C152.989 32.3161 153.336 30.1684 153.344 27.9331C153.344 27.7829 153.327 27.6261 153.18 27.5038C151.778 28.7823 150.451 30.114 149.115 31.4496H149.114ZM60.5286 30.8662C60.8556 30.8662 61.1147 30.7466 61.3712 30.6509C64.1542 29.6049 66.472 27.8892 68.4575 25.703C68.7672 25.3614 69.0662 25.0066 69.2429 24.572C69.4117 24.1587 69.2881 23.9753 68.8389 23.95C68.3432 23.9208 67.89 24.0803 67.4568 24.2863C64.8373 25.5289 62.6232 27.246 61.0988 29.7578C60.8915 30.0993 60.6655 30.4369 60.5286 30.8675V30.8662ZM109.445 30.8303C109.509 30.8941 109.581 30.8648 109.646 30.8449C110.412 30.6163 111.148 30.3133 111.86 29.9505C113.5 29.1145 114.961 28.0248 116.304 26.7755C116.889 26.2319 117.442 25.6538 117.886 24.9853C118.051 24.7368 118.218 24.4816 118.176 24.1892C118.067 23.962 117.885 23.9607 117.705 23.95C117.38 23.9314 117.07 24.0045 116.767 24.1122C115.823 24.4457 114.965 24.9415 114.142 25.501C112.206 26.818 110.58 28.4208 109.526 30.5446C109.483 30.6336 109.387 30.712 109.447 30.8303H109.445ZM55.1103 24.059C54.7993 23.8716 54.4604 23.9354 54.1361 24.0098C53.8783 24.0683 53.6298 24.172 53.3839 24.2716C52.322 24.7022 51.3758 25.3269 50.4588 26.0033C48.8493 27.1928 47.5323 28.6348 46.61 30.421C46.5422 30.5512 46.4266 30.6748 46.4664 30.8808C47.3622 30.6721 48.1622 30.3053 48.9503 29.9066C50.6302 29.0587 52.1041 27.9251 53.465 26.6399C54.0338 26.103 54.5654 25.5302 54.9814 24.8617C55.1315 24.6198 55.2777 24.3687 55.1103 24.0577V24.059Z" fill="#F4F1EB"></path><path d="M22.7278 34.2046C21.9995 34.5263 21.3071 34.9236 20.5695 35.228C18.7567 35.9735 16.8961 36.5623 14.9558 36.848C13.5988 37.0474 12.234 37.1032 10.877 36.7829C8.80114 36.2952 6.96578 34.5834 6.57771 32.1433C6.31324 30.4794 6.60429 28.8899 7.15981 27.335C7.88944 25.2936 9.01112 23.4649 10.2737 21.716C12.7443 18.2951 15.7279 15.4032 19.2392 13.0615C21.5995 11.4879 24.09 10.1722 26.8358 9.38544C28.0385 9.04123 29.2585 8.83922 30.5158 8.88574C31.4195 8.91896 32.278 9.113 33.0528 9.59011C34.0376 10.1961 34.524 11.1025 34.5878 12.2415C34.6689 13.6821 34.2582 15.0231 33.6562 16.3003C31.458 20.9651 28.2259 24.7275 23.7897 27.4134C22.2919 28.3198 20.7011 29.0135 18.972 29.3551C18.2025 29.5066 17.429 29.5943 16.6449 29.4176C15.7173 29.2076 15.2535 28.6427 15.2123 27.6978C15.1764 26.8566 15.4156 26.0831 15.7385 25.3282C16.3579 23.8796 17.1991 22.5665 18.2464 21.3917C18.5002 21.1073 18.786 20.8308 19.2019 20.8667C19.3867 21.0873 19.3322 21.2694 19.2232 21.4435C19.1288 21.5937 19.0185 21.7332 18.9175 21.8794C18.168 22.9666 17.5035 24.0949 17.2417 25.4133C17.0436 26.406 17.5128 27.0426 18.5215 27.1489C19.4797 27.2499 20.3954 27.0479 21.2938 26.7396C23.3883 26.0206 25.2356 24.8684 26.9474 23.4875C29.3223 21.5711 31.151 19.2161 32.5013 16.4877C33.0143 15.451 33.4103 14.3732 33.526 13.205C33.732 11.1131 32.6834 10.1855 31.2627 9.81205C30.1171 9.51037 28.9675 9.63131 27.8392 9.93964C25.9121 10.4659 24.1937 11.4188 22.5657 12.5498C21.1024 13.5652 19.7535 14.7174 18.479 15.9627C16.4124 17.9815 14.5252 20.1437 13.0207 22.6197C11.7515 24.7076 10.7122 26.8978 10.0943 29.2714C9.82447 30.3067 9.66632 31.3552 9.70353 32.4304C9.71682 32.8238 9.77131 33.2105 9.87364 33.5866C10.2046 34.7934 10.9594 35.6386 12.6845 35.8965C14.2208 36.125 15.6947 35.8034 17.1367 35.3409C19.5555 34.5661 21.8041 33.4325 23.8574 31.9347C25.015 31.0908 25.9785 30.0462 26.8025 28.8766C27.2477 28.244 27.9083 28.1032 28.61 28.0367C28.6352 28.0341 28.6645 28.0766 28.699 28.1045C28.7708 28.3663 28.5741 28.5324 28.4478 28.7118C27.7461 29.694 27.0378 30.6735 26.3201 31.645C24.7904 33.7209 23.4548 35.9257 22.0301 38.0707C21.323 39.1352 20.6054 40.1931 19.8651 41.2922C20.4751 41.6072 21.1051 41.877 21.6686 42.2943C22.1656 41.6271 22.6773 41.0158 23.3298 40.5413C25.0668 39.2788 27.0165 38.6967 29.1482 38.9013C31.579 39.1352 33.1578 40.859 33.6296 42.992C33.9672 44.5137 33.6256 45.8693 32.403 46.89C31.3318 47.7831 30.0546 47.9638 28.7336 47.613C27.6199 47.3166 27.1959 46.2016 27.7541 45.1968C28.1315 44.5164 28.6791 44.03 29.4512 43.8399C30.0559 43.6897 30.6048 44.0499 30.7258 44.6599C30.8042 45.0573 30.5663 45.2806 30.0466 45.2925C29.9443 45.2434 29.8938 45.1543 29.8486 45.0546C29.8127 44.9749 29.7582 44.9045 29.7104 44.826C29.3529 44.6679 29.0804 44.8513 28.8346 45.0546C28.5688 45.2752 28.384 45.5543 28.3907 45.9251C28.396 46.1883 28.5382 46.3624 28.7535 46.4727C29.6599 46.9392 30.5982 47.0189 31.5192 46.5631C32.4149 46.1192 32.8056 45.3085 32.8495 44.3463C32.9359 42.4657 31.5232 40.5573 29.6333 39.9792C28.2697 39.5619 26.9248 39.7134 25.6091 40.1971C24.3651 40.6543 23.3086 41.3906 22.4886 42.4378C20.8459 44.535 21.0346 47.8841 23.6196 49.6689C24.825 50.5009 26.1712 50.978 27.6013 51.2451C30.5105 51.7874 33.2469 51.2212 35.8796 49.972C37.3734 49.2636 38.8048 48.437 40.2773 47.6901C40.3385 47.6595 40.3876 47.6037 40.4554 47.5505C40.4288 47.4801 40.4129 47.411 40.3783 47.3525C39.4148 45.7856 39.4055 44.1788 40.2866 42.5986C41.3485 40.6955 42.9274 39.409 45.0897 38.9359C46.4412 38.6409 47.7437 39.1937 48.3617 40.2822C49.2295 41.8119 48.5916 43.707 46.5276 44.2267C46.1967 44.3104 45.8631 44.329 45.5282 44.2373C44.8916 44.0645 44.5301 43.6246 44.4158 43.0053C44.3122 42.4418 44.5806 42.0059 45.0405 41.6909C45.4751 41.3932 45.9562 41.2244 46.4878 41.2205C46.8745 41.2178 47.018 41.2909 47.0393 41.4956C47.0632 41.7401 46.8067 42.0577 46.5356 42.0989C46.4133 42.1175 46.2871 42.1016 46.1622 42.1096C45.7515 42.1348 45.5535 42.2265 45.2824 42.5083C45.4432 43.1993 46.206 43.5595 46.9077 43.2778C47.761 42.9349 48.1105 41.8517 47.6506 40.9852C47.0991 39.9473 46.0027 39.7134 45.2704 39.7997C44.3467 39.9087 43.5307 40.2782 42.7971 40.8417C42.0595 41.4105 41.4136 42.0564 40.9485 42.8791C40.1391 44.3091 40.4807 45.9623 41.4442 47.0747C41.908 46.8554 42.3838 46.6295 42.8596 46.4062C44.9528 45.4281 47.0619 44.4911 49.284 43.8386C50.5306 43.4718 51.7905 43.1914 53.1075 43.2219C54.3329 43.2512 55.3642 43.6552 56.1217 44.6466C56.2506 44.8141 56.4075 44.8925 56.6055 44.9417C58.7359 45.464 60.558 46.5006 61.988 48.1858C64.0679 50.6365 64.0067 54.258 61.8311 56.613C60.9248 57.5938 59.8084 58.1932 58.4488 58.1706C56.9391 58.1467 55.6951 57.5074 54.7715 56.3166C53.5195 54.7032 53.8651 52.0067 56.3623 50.9368C57.0108 50.6591 57.6926 50.5195 58.3903 50.7149C59.3113 50.974 59.8855 51.5933 60.0769 52.5237C60.2456 53.341 59.7924 54.25 59.0469 54.7046C58.2588 55.1856 57.359 54.876 57.0467 54.0161C56.9391 53.7198 57.0042 53.5045 57.2394 53.3755C57.468 53.2506 57.7285 53.3024 57.8999 53.531C58.0235 53.6972 58.0807 53.9417 58.3558 53.9085C58.6322 53.8752 58.7771 53.6639 58.9047 53.446C59.2701 52.8214 59.1173 52.2113 58.49 51.8552C57.7072 51.4099 56.967 51.6173 56.2879 52.0811C54.7409 53.1363 54.6744 55.1883 56.1589 56.3339C57.4268 57.3121 59.4416 57.5819 60.9394 56.1385C61.9614 55.1524 62.4611 53.9337 62.5355 52.529C62.6339 50.6577 61.8032 49.2051 60.4636 47.9944C59.4589 47.0867 58.284 46.474 56.9882 46.0873C56.9218 46.0673 56.85 46.062 56.7995 46.0541C56.6759 46.1112 56.6892 46.2069 56.6919 46.2893C56.7092 47.0003 56.4367 47.6037 56.0101 48.1499C54.9947 49.451 53.6405 50.2457 52.0643 50.6179C48.9198 51.3608 45.8605 51.1269 42.9446 49.645C42.8822 49.6131 42.8157 49.5905 42.736 49.5573C41.6635 50.1075 40.5896 50.6591 39.5158 51.2093C39.2154 51.3634 38.9177 51.5229 38.6121 51.6651C38.2851 51.8166 38.014 51.7409 37.8825 51.4817C37.7456 51.2146 37.8399 50.9807 38.1855 50.8026C39.2274 50.2657 40.2747 49.7381 41.3166 49.2011C41.4694 49.1227 41.6462 49.0762 41.7884 48.9141C41.5425 48.6828 41.2993 48.4556 41.0362 48.2084C40.1511 48.619 39.3045 49.0988 38.4552 49.5733C37.1834 50.2829 35.9075 50.9873 34.528 51.4737C33.2309 51.9309 31.8886 52.1529 30.5171 52.2645C28.8492 52.4014 27.2158 52.2672 25.6117 51.81C24.3292 51.4445 23.177 50.8385 22.2294 49.8723C20.5828 48.1951 20.0924 45.7351 20.9895 43.5622C21.0639 43.3827 21.1396 43.2033 21.226 43C20.5961 42.6598 19.9648 42.3475 19.2843 42.1282C19.093 42.2052 19.0079 42.39 18.8896 42.5402C17.5566 44.2453 16.0509 45.7723 14.2155 46.9405C12.1303 48.2668 9.90288 49.2702 7.45751 49.7194C5.86004 50.0132 4.24929 50.1168 2.63853 49.7766C1.98998 49.6397 1.36933 49.4284 0.845704 49.0031C0.150634 48.437 -0.105864 47.6994 0.0389974 46.8222C0.16924 46.0408 0.582561 45.4068 1.10752 44.834C1.94878 43.917 2.96813 43.2392 4.06589 42.6784C6.36374 41.5035 8.79316 40.758 11.3635 40.4603C12.731 40.3021 14.0986 40.3207 15.4648 40.3898C16.4217 40.4377 17.3692 40.6118 18.3009 40.8483C18.4391 40.8829 18.5733 40.9267 18.7288 40.9015C18.9175 40.7952 19.0079 40.5945 19.1235 40.4191C20.4392 38.4123 21.5915 36.3098 22.7304 34.2006L22.7464 34.182L22.7344 34.206L22.7278 34.2046ZM18.1321 41.7906C18.0138 41.7348 17.9686 41.7042 17.9194 41.6923C16.4137 41.3308 14.8933 41.162 13.337 41.2112C11.5136 41.2683 9.73941 41.5793 7.99842 42.0989C6.37038 42.584 4.83937 43.2751 3.50372 44.3476C2.91762 44.8181 2.41792 45.3616 2.10162 46.062C1.68962 46.9751 2.16009 47.7538 2.73422 48.0927C3.11963 48.32 3.52631 48.4861 3.96488 48.5778C5.58494 48.9181 7.18241 48.7639 8.7493 48.3041C11.4791 47.5013 13.9351 46.1896 16.011 44.2214C16.7831 43.4891 17.4756 42.6837 18.1294 41.7933L18.1321 41.7906ZM55.739 45.88C55.44 45.7829 55.1449 45.7431 54.8432 45.7284C53.6272 45.6673 52.4351 45.8095 51.2549 46.1072C49.0062 46.676 46.8718 47.5439 44.7906 48.5486C44.5262 48.6762 44.2231 48.7426 43.9959 48.9672C44.0517 49.0098 44.0889 49.0523 44.1354 49.0736C46.735 50.2032 49.4182 50.4212 52.1586 49.7221C53.3096 49.4284 54.3382 48.8609 55.1688 47.9878C55.735 47.3937 55.9609 46.7039 55.7376 45.88H55.739ZM42.8928 48.3785C43.0576 48.3001 43.1998 48.2323 43.3433 48.1632C44.9727 47.3724 46.6127 46.6029 48.3205 45.9916C50.1133 45.3497 51.9194 44.7769 53.8465 44.7064C54.0498 44.6985 54.2532 44.6519 54.5415 44.6107C53.9196 44.2958 53.3428 44.1509 52.7354 44.1203C51.6722 44.0685 50.6515 44.3157 49.6428 44.5988C47.2918 45.2593 45.071 46.2534 42.8689 47.29C42.6004 47.4163 42.3094 47.5053 42.0449 47.7286C42.2948 47.9851 42.5645 48.1765 42.8941 48.3758L42.8928 48.3785Z" fill="#F4F1EB"></path><path d="M146.696 44.523C146.603 44.3795 146.608 44.2812 146.708 44.1217C147.92 44.0632 149.172 44.1071 150.371 44.0951C150.533 44.244 150.536 44.3569 150.474 44.4779C150.405 44.5802 150.291 44.5855 150.193 44.6201C149.585 44.834 149.357 45.1304 149.326 45.8069C149.282 46.7996 149.25 47.7924 149.216 48.7865C149.181 49.7979 149.145 50.8079 149.118 51.8193C149.102 52.3974 149.245 52.6034 149.814 52.6885C150.504 52.7921 151.197 52.7722 151.867 52.5463C152.516 52.327 152.932 51.8685 153.176 51.2359C153.309 50.8903 153.323 50.8956 153.655 50.9475C153.764 51.1069 153.727 51.2877 153.713 51.4618C153.677 51.9389 153.637 52.4173 153.59 52.8931C153.548 53.3104 153.361 53.4978 152.936 53.5085C152.545 53.5191 152.15 53.5191 151.764 53.4739C151.337 53.4247 150.913 53.4274 150.486 53.4274C148.069 53.4261 145.65 53.4274 143.233 53.4247C143.024 53.4247 142.806 53.4726 142.617 53.3689C142.507 53.2466 142.534 53.1323 142.599 53.022C142.718 52.9131 142.874 52.9489 143.005 52.8998C143.342 52.7722 143.447 52.6034 143.356 52.2406C143.191 51.5867 142.904 50.9754 142.694 50.3786C142.547 50.2683 142.419 50.2883 142.297 50.2869C141.461 50.2856 140.625 50.2936 139.789 50.283C139.284 50.2763 138.945 50.4757 138.765 50.9594C138.629 51.3249 138.446 51.6718 138.302 52.0346C138.084 52.5861 138.225 52.8187 138.812 52.9303C138.949 52.9556 139.099 52.9131 139.22 53.0048C139.335 53.1137 139.303 53.2267 139.271 53.3144C139.145 53.4447 139.014 53.4247 138.892 53.4261C138.519 53.4287 138.145 53.4234 137.772 53.4287C137.151 53.4367 136.533 53.4314 135.91 53.5005C134.578 53.6493 133.523 53.1191 132.707 52.0731C132.193 51.4139 131.746 50.7082 131.293 50.0079C131.196 49.859 131.11 49.7022 130.995 49.5666C130.818 49.3566 130.606 49.2011 130.305 49.253C130.182 49.3673 130.22 49.5175 130.216 49.653C130.198 50.1673 130.216 50.6817 130.146 51.1947C130.122 51.3688 130.13 51.5508 130.146 51.7263C130.204 52.3894 130.492 52.7084 131.145 52.8559C131.284 52.8865 131.423 52.9184 131.561 52.9503C131.701 52.9822 131.789 53.0699 131.769 53.2121C131.75 53.3543 131.637 53.4141 131.5 53.4207C131.411 53.4261 131.322 53.4261 131.233 53.4261C130.149 53.4261 129.063 53.4274 127.978 53.4261C127.806 53.4261 127.62 53.4619 127.476 53.3237C127.387 53.0938 127.499 52.9808 127.701 52.9303C128.324 52.7748 128.526 52.3124 128.571 51.7382C128.587 51.5256 128.583 51.3129 128.59 51.099C128.635 49.5201 128.681 47.9412 128.728 46.3624C128.736 46.0806 128.78 45.8069 128.739 45.5171C128.672 45.036 128.454 44.7304 127.98 44.6068C127.88 44.5802 127.766 44.5709 127.683 44.4632C127.59 44.2931 127.651 44.1669 127.843 44.1137C127.942 44.0858 128.054 44.0951 128.16 44.0964C129.209 44.119 130.256 44.0592 131.304 44.0087C132.089 43.9702 132.869 44.038 133.612 44.3171C134.645 44.7038 135.116 45.4281 135.162 46.5033C135.217 47.8137 134.233 48.6722 133.289 49.0045C132.97 49.1161 132.637 49.1573 132.307 49.1865C132.304 49.241 132.287 49.2875 132.302 49.3035C133.293 50.3468 134.271 51.4033 135.431 52.2658C135.673 52.4453 135.94 52.5901 136.19 52.7576C136.42 52.9117 136.626 52.8559 136.827 52.7018C137.075 52.509 137.21 52.2379 137.333 51.9615C137.976 50.5195 138.616 49.0762 139.254 47.6316C139.676 46.6747 140.102 45.7178 140.515 44.757C140.673 44.3875 140.926 44.1376 141.311 44.0326C141.807 43.8984 142.127 44.0606 142.312 44.5483C142.838 45.9424 143.358 47.3379 143.88 48.7333C144.277 49.7965 144.677 50.8597 145.072 51.9243C145.236 52.3655 145.531 52.6552 145.968 52.8479C146.664 53.1549 147.49 52.6765 147.519 51.8592C147.556 50.8132 147.573 49.766 147.621 48.72C147.665 47.7804 147.711 46.8408 147.706 45.8999C147.706 45.7404 147.71 45.5783 147.686 45.4215C147.628 45.0427 147.438 44.7623 147.052 44.6427C146.934 44.6054 146.817 44.5642 146.695 44.523H146.696ZM130.353 48.5446C131.167 48.7945 131.971 48.7054 132.749 48.3413C133.123 48.1659 133.361 47.8535 133.45 47.4535C133.613 46.7212 133.515 46.0487 132.953 45.4919C132.502 45.048 131.944 44.8393 131.337 44.7676C131.052 44.7344 130.752 44.5762 130.47 44.7609C130.347 45.1557 130.246 48.1831 130.353 48.5446ZM142.377 49.4962C141.904 48.1752 141.466 46.9511 141.025 45.7218C140.487 46.9724 139.947 48.2257 139.401 49.4962H142.377Z" fill="#F4F1EB"></path><path d="M115.204 44.119H118.137C118.279 44.2386 118.291 44.3476 118.222 44.4646C118.149 44.5696 118.036 44.5855 117.935 44.6068C117.41 44.7237 117.219 45.0919 117.197 45.5796C117.155 46.5538 117.119 47.5293 117.087 48.5047C117.041 49.9055 117.005 51.3063 116.956 52.7071C116.948 52.9516 116.897 53.1948 116.867 53.438C116.449 53.6905 116.092 53.5736 115.765 53.3224C115.439 53.0712 115.183 52.7509 114.961 52.4041C113.61 50.2962 112.196 48.2296 110.906 46.0833C110.89 46.0567 110.854 46.0421 110.786 45.9916C110.786 46.4607 110.806 46.9006 110.782 47.3379C110.716 48.5778 110.68 49.8191 110.661 51.0618C110.657 51.3608 110.591 51.6505 110.638 51.9602C110.713 52.4639 110.968 52.7655 111.45 52.8971C111.633 52.9476 111.854 52.9609 111.827 53.2334C111.779 53.3569 111.689 53.4128 111.576 53.4141C110.606 53.4207 109.634 53.4513 108.713 53.3995C108.605 53.2254 108.609 53.127 108.675 53.0313C108.704 53.0088 108.728 52.9782 108.758 52.9676C109.562 52.7004 109.686 52.5436 109.722 51.7223C109.806 49.8258 109.897 47.9293 109.92 46.0315C109.921 45.9065 109.92 45.7829 109.92 45.658C109.912 45.1384 109.686 44.7875 109.173 44.6214C108.821 44.5084 108.826 44.4911 108.873 44.0951C109.743 44.0911 110.623 44.0898 111.552 44.0978C113.056 46.4448 114.621 48.7466 116.088 51.1561C116.152 50.5395 116.142 49.9334 116.177 49.3327C116.239 48.235 116.218 47.1332 116.296 46.0355C116.303 45.9464 116.31 45.8574 116.304 45.7697C116.27 45.1875 116.044 44.7357 115.431 44.5868C115.07 44.4991 115.078 44.4712 115.205 44.1164L115.204 44.119Z" fill="#F4F1EB"></path><path d="M126.348 51.0843C126.421 51.4166 126.37 51.7342 126.354 52.0492C126.34 52.3495 126.303 52.6499 126.276 52.9503C126.237 53.3702 126.099 53.4991 125.663 53.5124C125.574 53.5151 125.485 53.5098 125.396 53.5045C123.407 53.3716 121.416 53.4473 119.425 53.4247C119.218 53.4221 118.996 53.4805 118.808 53.333C118.713 53.1177 118.791 52.9915 119.005 52.9356C119.647 52.7695 119.829 52.311 119.875 51.6983C119.945 50.7946 119.933 49.8896 119.969 48.9858C120.008 47.9931 120.04 47.0003 120.074 46.0062C120.077 45.8826 120.074 45.7577 120.071 45.6341C120.062 45.1158 119.854 44.7503 119.313 44.6227C119.097 44.5709 118.888 44.4845 119.021 44.1815C119.188 44.0393 119.393 44.0991 119.582 44.0977C121.218 44.0871 122.854 44.0871 124.49 44.0725C124.879 44.0698 125.269 44.0167 125.659 44.0047C126.245 43.9874 126.423 44.1682 126.337 44.7277C126.251 45.2859 126.288 45.8613 126.122 46.3983C126.006 46.5099 125.891 46.5033 125.767 46.4448C125.619 46.3172 125.63 46.1271 125.574 45.961C125.366 45.339 124.978 44.9377 124.293 44.842C123.445 44.7237 122.599 44.7742 121.698 44.7649C121.687 45.8959 121.542 46.979 121.591 48.114C122.27 48.1964 122.906 48.1645 123.538 48.1419C124.173 48.1193 124.785 47.924 125.417 47.795C125.552 48.2057 125.423 48.5512 125.378 48.8901C125.346 49.1254 125.11 49.1466 124.906 49.124C124.535 49.0842 124.163 49.047 123.795 48.9872C123.194 48.8901 122.589 48.9167 121.985 48.922C121.667 48.9247 121.587 49.0111 121.571 49.346C121.527 50.2138 121.49 51.083 121.466 51.9522C121.453 52.4173 121.638 52.6698 122.104 52.7097C122.847 52.7722 123.597 52.8054 124.337 52.6752C125.064 52.5476 125.533 52.0957 125.819 51.4312C125.905 51.2319 125.944 50.9514 126.345 51.0843H126.348Z" fill="#F4F1EB"></path><path d="M98.7363 44.3038C98.7895 44.1762 98.8586 44.1004 98.9822 44.1004C100.152 44.1004 101.321 44.1004 102.442 44.1004C102.598 44.2493 102.597 44.3609 102.516 44.5098C102.472 44.5257 102.41 44.5549 102.345 44.5735C101.603 44.7822 101.551 44.8354 101.481 45.5703C101.352 46.9339 101.389 48.3027 101.43 49.6663C101.453 50.4557 101.684 51.2026 102.302 51.7754C103.222 52.6273 105.181 52.6114 105.896 51.1242C106.172 50.5501 106.261 49.9374 106.278 49.3168C106.308 48.1645 106.305 47.0109 106.387 45.86C106.438 45.153 106.305 44.7729 105.502 44.5855C105.417 44.5656 105.326 44.5523 105.256 44.4473C105.251 44.4207 105.23 44.3702 105.232 44.321C105.235 44.2719 105.263 44.224 105.284 44.1576C105.347 44.139 105.413 44.1017 105.478 44.1017C106.332 44.0964 107.185 44.0964 108.038 44.0938C108.229 44.0938 108.398 44.1164 108.422 44.3476C108.388 44.5629 108.205 44.5656 108.058 44.6134C107.429 44.8168 107.306 44.9789 107.275 45.6421C107.222 46.7757 107.158 47.9093 107.157 49.0456C107.157 49.6317 107.082 50.2152 106.932 50.7827C106.395 52.8094 104.688 53.7729 102.727 53.5536C101.241 53.3875 100.265 52.4306 99.9404 51.0179C99.8447 50.6019 99.7716 50.1833 99.7729 49.7553C99.7756 48.6549 99.7636 47.5558 99.854 46.4567C99.8806 46.1391 99.8699 45.8175 99.8553 45.4985C99.8367 45.0653 99.6347 44.7649 99.1961 44.6387C99.0194 44.5882 98.7921 44.5882 98.7376 44.3038H98.7363Z" fill="#F4F1EB"></path><path d="M154.46 50.6763C154.75 50.5155 154.897 50.6139 155.004 50.8465C155.223 51.3209 155.529 51.7342 155.934 52.0652C156.591 52.6021 157.336 52.8014 158.175 52.6313C158.405 52.5848 158.617 52.4931 158.81 52.3655C159.517 51.9004 159.614 51.0604 159.037 50.4424C158.766 50.1514 158.426 49.9587 158.07 49.7912C157.54 49.5427 157.005 49.2995 156.479 49.0417C156.046 48.829 155.64 48.5646 155.32 48.2004C154.424 47.1811 154.629 45.6368 155.761 44.7702C156.234 44.4074 156.77 44.1775 157.349 44.0499C158.124 43.8798 158.899 43.8546 159.665 44.0871C160.3 44.2798 160.603 44.6759 160.631 45.3324C160.652 45.8122 160.604 46.284 160.489 46.7478C160.281 46.8515 160.135 46.8249 160.049 46.6109C159.989 46.4634 159.936 46.3119 159.867 46.1684C159.4 45.2008 158.566 44.7344 157.533 44.8619C157.13 44.9124 156.787 45.0839 156.506 45.3763C156.022 45.88 156.017 46.4807 156.492 46.9897C156.726 47.2395 157.009 47.4256 157.314 47.5744C157.792 47.807 158.278 48.0276 158.761 48.2522C159.1 48.4104 159.419 48.6057 159.726 48.8184C161.354 49.9494 160.859 51.9615 159.758 52.7748C159.027 53.3144 158.197 53.5257 157.316 53.5842C156.729 53.6227 156.143 53.5722 155.575 53.4021C154.858 53.1868 154.474 52.7111 154.428 51.9721C154.402 51.5322 154.411 51.0923 154.458 50.675L154.46 50.6763Z" fill="#F4F1EB"></path><path d="M93.6302 48.2429C94.9446 48.3399 96.1899 48.3453 97.3727 47.8402C97.5295 48.215 97.4817 48.8077 97.281 49.2131C97.0125 49.2835 96.7321 49.245 96.4517 49.2011C95.6955 49.0829 94.9353 49.0204 94.1698 49.0244C93.9904 49.0244 93.8123 49.0217 93.6475 49.1918C93.5585 49.3726 93.5438 49.6065 93.5332 49.8324C93.508 50.4172 93.4947 51.0046 93.4987 51.5894C93.5026 52.3642 93.7644 52.6632 94.5087 52.8718C94.7306 52.9343 95.031 52.8506 95.1626 53.1443C95.1506 53.4274 94.9459 53.426 94.7453 53.426C94.2828 53.426 93.8203 53.426 93.3578 53.426C92.6999 53.426 92.0421 53.4287 91.3842 53.4247C91.2088 53.4247 91.028 53.4566 90.8513 53.3689C90.7157 53.1895 90.7463 53.0101 90.9616 52.9569C91.7497 52.7629 91.8826 52.1848 91.9025 51.4937C91.9517 49.7381 92.0261 47.9838 92.0886 46.2295C92.0939 46.07 92.0979 45.9092 92.0939 45.7497C92.0793 45.0413 91.9464 44.854 91.2912 44.6068C91.0936 44.5323 91.0112 44.3835 91.044 44.1602C91.2194 44.0433 91.4201 44.0964 91.6101 44.0951C93.2634 44.0845 94.9167 44.0845 96.57 44.0712C96.9953 44.0672 97.4206 44.0074 97.8458 44.006C98.2193 44.0047 98.4067 44.1802 98.3668 44.5257C98.2937 45.1556 98.2911 45.7962 98.1449 46.4089C97.9043 46.5538 97.7594 46.4846 97.6677 46.26C97.6545 46.2268 97.6491 46.1909 97.6412 46.1577C97.3873 45.1198 96.7228 44.7888 95.7673 44.7729C95.1626 44.7623 94.5579 44.7649 93.9545 44.7636C93.9027 44.7636 93.8508 44.7795 93.7365 44.7981C93.7073 45.9132 93.5757 47.0335 93.6289 48.2429H93.6302Z" fill="#F4F1EB"></path><path d="M107.783 17.7024C107.97 17.9721 107.944 18.238 107.867 18.4944C107.545 19.5749 106.952 20.4826 106.084 21.2016C105.811 21.4276 105.512 21.6296 105.129 21.502C104.92 21.3159 104.899 21.0953 104.956 20.8588C105.256 19.6042 105.935 18.5981 106.964 17.8286C107.251 17.6133 107.331 17.6213 107.784 17.701L107.783 17.7024Z" fill="#F4F1EB"></path></svg>