<?xml version="1.0" encoding="UTF-8"?> <svg xmlns="http://www.w3.org/2000/svg" width="36" height="50" viewBox="0 0 36 50" fill="none"><path d="M33.5162 49H2.54836C1.69325 49 1 48.3068 1 47.4517C1 46.5966 1.69325 45.9033 2.54836 45.9033H33.5161C34.3712 45.9033 35.0645 46.5966 35.0645 47.4517C35.0645 48.3068 34.3713 49 33.5162 49Z" stroke="#024A3F" stroke-width="1.25" stroke-miterlimit="10" stroke-linecap="round" stroke-linejoin="round"></path><path d="M14.4874 37.1283C13.9079 36.8331 13.1888 36.9122 12.6796 37.3588C12.6242 36.5111 11.9262 35.8387 11.0644 35.8387C10.2027 35.8387 9.50478 36.5111 9.44925 37.3588C8.81067 36.7986 7.84168 36.8167 7.23236 37.426C6.62304 38.0353 6.60498 39.0043 7.16514 39.6429C6.31747 39.6983 5.64508 40.3963 5.64508 41.2581C5.64508 42.1198 6.31747 42.8178 7.16514 42.8733C6.60498 43.5119 6.62304 44.4809 7.23236 45.0902C7.84168 45.6995 8.81067 45.7176 9.44925 45.1574C9.46702 45.4297 9.55114 45.6839 9.68568 45.9035" stroke="#024A3F" stroke-width="1.25" stroke-miterlimit="10" stroke-linecap="round" stroke-linejoin="round"></path><path d="M11.0645 42.8064C11.9197 42.8064 12.6129 42.1132 12.6129 41.2581C12.6129 40.4029 11.9197 39.7097 11.0645 39.7097C10.2094 39.7097 9.51617 40.4029 9.51617 41.2581C9.51617 42.1132 10.2094 42.8064 11.0645 42.8064Z" stroke="#024A3F" stroke-width="1.25" stroke-miterlimit="10" stroke-linecap="round" stroke-linejoin="round"></path><path d="M26.3788 45.9035C26.5133 45.6839 26.5974 45.4297 26.6152 45.1574C27.2538 45.7176 28.2228 45.6995 28.8321 45.0902C29.4414 44.4809 29.4595 43.5119 28.8993 42.8733C29.747 42.8179 30.4194 42.1199 30.4194 41.2581C30.4194 40.3964 29.747 39.6984 28.8993 39.6429C29.4595 39.0043 29.4414 38.0353 28.8321 37.426C28.2228 36.8168 27.2538 36.7986 26.6152 37.3588C26.5598 36.5111 25.8618 35.8387 25 35.8387C24.1383 35.8387 23.4403 36.5111 23.3848 37.3588C22.8756 36.9122 22.1565 36.8331 21.577 37.1283" stroke="#024A3F" stroke-width="1.25" stroke-miterlimit="10" stroke-linecap="round" stroke-linejoin="round"></path><path d="M25 42.8064C25.8552 42.8064 26.5484 42.1132 26.5484 41.2581C26.5484 40.4029 25.8552 39.7097 25 39.7097C24.1449 39.7097 23.4517 40.4029 23.4517 41.2581C23.4517 42.1132 24.1449 42.8064 25 42.8064Z" stroke="#024A3F" stroke-width="1.25" stroke-miterlimit="10" stroke-linecap="round" stroke-linejoin="round"></path><path d="M19.4032 45.9032C19.539 45.6828 19.6296 45.431 19.6475 45.1573C20.2861 45.7174 21.255 45.6994 21.8644 45.0901C22.4737 44.4807 22.4917 43.5118 21.9317 42.8732C22.7793 42.8177 23.4517 42.1197 23.4517 41.258C23.4517 40.3963 22.7794 39.6983 21.9317 39.6428C22.4918 39.0042 22.4737 38.0351 21.8644 37.4259C21.255 36.8166 20.2861 36.7985 19.6475 37.3587C19.592 36.511 18.8941 35.8386 18.0323 35.8386C17.1706 35.8386 16.4726 36.511 16.4171 37.3587C15.7785 36.7985 14.8095 36.8166 14.2002 37.4259C13.5909 38.0352 13.5728 39.0042 14.133 39.6428C13.2853 39.6982 12.6129 40.3962 12.6129 41.258C12.6129 42.1197 13.2853 42.8176 14.133 42.8732C13.5728 43.5118 13.5909 44.4807 14.2002 45.0901C14.8095 45.6994 15.7785 45.7174 16.4171 45.1573C16.435 45.431 16.5255 45.6828 16.6613 45.9032M18.0323 39.7096C18.8874 39.7096 19.5806 40.4029 19.5806 41.258C19.5806 42.1131 18.8874 42.8063 18.0323 42.8063C17.1772 42.8063 16.4839 42.1131 16.4839 41.258C16.4839 40.4029 17.1772 39.7096 18.0323 39.7096Z" stroke="#024A3F" stroke-width="1.25" stroke-miterlimit="10" stroke-linecap="round" stroke-linejoin="round"></path><path d="M7.96771 36.8241V17.2581C7.96771 16.8305 8.31434 16.4839 8.74189 16.4839H27.3225C27.7501 16.4839 28.0967 16.8305 28.0967 17.2581V36.8241" stroke="#024A3F" stroke-width="1.25" stroke-miterlimit="10" stroke-linecap="round" stroke-linejoin="round"></path><path d="M25 19.5807V35.6472" stroke="#024A3F" stroke-width="1.25" stroke-miterlimit="10" stroke-linecap="round" stroke-linejoin="round"></path><path d="M11.0646 32.7419V14.1613C11.0646 13.7337 11.4112 13.3871 11.8388 13.3871H24.2258C24.6534 13.3871 25 13.7337 25 14.1613V16.4838" stroke="#024A3F" stroke-width="1.25" stroke-miterlimit="10" stroke-linecap="round" stroke-linejoin="round"></path><path d="M18.0323 13.3871V7.96777" stroke="#024A3F" stroke-width="1.25" stroke-miterlimit="10" stroke-linecap="round" stroke-linejoin="round"></path><path d="M21.1291 7.19355C21.1291 8.90387 19.7426 10.2904 18.0323 10.2904C16.322 10.2904 14.9355 8.90387 14.9355 7.19355C14.9355 4.09682 18.0323 1 18.0323 1C18.0323 1 21.1291 4.09682 21.1291 7.19355Z" stroke="#024A3F" stroke-width="1.25" stroke-miterlimit="10" stroke-linecap="round" stroke-linejoin="round"></path></svg> 