<svg xmlns="http://www.w3.org/2000/svg" width="513" height="318" viewBox="0 0 513 318" fill="none"><g clip-path="url(#clip0_116_633)"><path d="M563.556 540.792C559.569 527.998 555.019 516.244 552.3 503.924C547.627 482.75 541.793 461.828 537.426 440.597C529.439 401.806 509.692 369.864 478.1 347.011C430.769 312.779 413.154 265.315 410.436 209.864C409.679 194.413 410.374 178.883 407.142 163.581C405.089 153.856 402.337 144.523 396.618 136.214C395.346 134.362 392.131 132.109 394.891 129.794C397.321 127.756 399.511 130.826 401.407 132.191C411.303 139.329 419.199 148.625 427.794 157.148C438.603 167.867 449.337 178.685 459.671 189.858C484.876 217.109 498.23 249.559 501.945 286.344C505.06 317.21 508.721 348.042 524.683 375.681C526.567 378.944 527.666 382.86 532.356 386C532.591 381.721 533.223 378.462 532.876 375.31C528.815 338.206 530.224 300.971 530.864 263.817C531.286 239.273 526.959 214.914 529.315 190.37C533.062 151.331 544.214 115.011 570.754 85.2312C596.442 56.4041 626.34 33.2913 664.812 23.5048C668.886 22.4692 672.799 20.7653 676.749 19.2635C679.278 18.3021 681.704 17.6173 683.414 20.4765C684.769 22.7374 684.294 25.0685 682.336 26.5703C664.114 40.5651 661.358 62.0235 656.255 81.9595C646.115 121.58 625.716 154.31 594.02 180.138C565.733 203.189 547.21 231.492 544.718 269.037C543.545 286.757 543.024 304.457 542.611 322.19C541.669 362.635 547.433 402.569 551.445 442.635C551.722 445.407 552.354 448.279 553.499 450.796C554.66 453.354 553.3 458.416 557.366 458.016C560.597 457.698 560.387 452.904 560.754 450.049C564.853 418.536 570.266 387.175 571.53 355.328C571.989 343.784 574.319 332.446 577.142 321.204C584.36 292.447 602.321 271.351 624.894 253.416C633.505 246.576 642.302 239.921 650.446 232.556C663.726 220.55 672.051 206.015 671.167 187.366C671.056 184.998 670.444 181.689 674.179 181.598C676.989 181.528 677.473 184.152 677.708 186.504C682.431 233.48 679.014 278.864 651.97 319.743C640.558 336.993 625.741 351.409 612.643 367.252C576.282 411.221 565.465 461.614 574.91 516.966C577.245 530.639 582.703 543.367 590.103 555.228C594.252 561.875 597.136 568.943 599.512 576.621C602.21 585.347 611.213 590.686 618.093 596.833C620.609 599.082 621.324 596.14 621.113 594.069C620.568 588.747 619.845 583.445 619.175 578.135C616.647 558.145 622.559 538.965 624.973 519.458C625.733 513.314 625.526 507.909 622.316 502.459C619.304 497.347 617.655 491.617 616.804 485.692C613.651 463.668 624.692 448.394 645.558 445.985C666.027 443.621 684.146 457.306 686.108 476.619C688.203 497.228 673.101 516.528 653.313 517.345C645.24 517.679 641.409 520.712 638.562 528.13C625.311 562.671 629.712 616.163 671.49 647.564C683.53 656.612 690.719 667.232 688.633 682.655C687.893 688.121 687.778 694.277 680.861 696.34C673.849 698.432 668.829 695.391 664.833 689.92C657.028 679.238 650.499 667.744 642.302 657.252C622.299 631.659 594.772 623.383 564.204 621.526C555.011 620.969 547.317 625.665 540.157 630.764C535.752 633.9 537.38 639.073 537.57 643.397C538.194 657.648 533.29 669.307 522.171 678.314C510.845 687.486 498.383 688.154 485.636 682.279C472.831 676.379 464.688 666.778 463.109 652.037C459.894 622.013 490.545 603.443 516.014 614.323C519.117 615.647 521.844 615.548 524.968 614.591C547.02 607.829 569.204 606.306 591.558 613.271C594.128 614.071 596.805 615.078 600.206 613.328C592.839 605.192 584.848 598.215 576.501 591.692C539.314 562.626 497.706 549.956 451.205 562.057C424.067 569.12 399.833 582.983 382.872 606.228C362.509 634.131 335.83 653.134 303.481 663.969C271.938 674.531 239.961 683.801 208.117 693.444C205.27 694.306 201.08 697.186 199.159 692.697C197.084 687.853 201.832 686.355 205.051 685.175C218.938 680.076 227.185 669.2 234.643 657.347C243.791 642.816 252.245 627.847 264.112 615.148C288.623 588.916 319.273 574.508 354.13 568.633C383.851 563.625 413.559 558.801 441.954 548.223C442.941 547.856 443.875 547.348 445.391 546.651C443.425 543.066 440.053 543.268 437.363 542.443C412.08 534.686 386.041 535.35 360.109 536.27C321.219 537.652 283.545 546.073 246.581 557.807C222.909 565.32 202.749 578.218 186.804 597.473C180.871 604.635 174.487 611.418 168.413 618.469C145.27 645.345 115.384 659.88 80.9199 665.644C58.8142 669.34 37.5225 675.542 16.8175 684.004C14.5325 684.936 11.3427 687.853 9.30978 684.491C7.23143 681.058 11.4625 679.845 13.2888 678.145C29.7049 662.884 38.8818 642.51 51.2776 624.443C69.6191 597.708 89.7126 573.242 118.789 557.036C140.019 545.203 162.294 536.922 186.37 538.23C235.387 540.9 283.049 532.809 330.826 524.046C351.147 520.316 371.839 520.774 392.449 521.945C395.639 522.127 398.858 523.324 404.002 521.62C386.863 510.401 370.509 501.49 351.506 498.841C343.722 497.756 335.718 497.562 327.851 497.88C279.413 499.839 236.057 485.556 197.117 457.302C172.471 439.421 147.754 421.618 124.036 402.495C121.714 400.622 118.648 399.293 118.508 394.759C129.763 398.196 139.961 403.592 151.493 404.875C162.55 406.109 173.475 404.751 184.457 404.71C219.508 404.574 254.489 404.978 287.317 420.025C307.287 429.18 325.376 440.873 340.181 457.29C352.589 471.049 367.026 482.098 383.694 490.342C388.445 492.693 393.077 495.705 396.999 499.258C428.037 527.4 466.096 538.766 506.271 544.588C519.373 546.486 531.434 552.167 544.487 553.912C545.152 551.049 543.243 549.857 542.012 548.462C518.109 521.335 492.165 496.295 464.266 473.298C456.42 466.829 447.693 461.626 438.326 457.513C428.161 453.048 418.708 452.149 408.779 459.064C398.408 466.284 387.375 465.096 377.203 457.76C367.757 450.948 363.307 439.718 365.77 429.692C370.269 411.361 391.652 404.166 406.721 415.904C412.212 420.178 416.2 425.665 418.563 432.089C421.964 441.327 429.769 444.12 438.095 446.402C439.408 446.761 441.069 447.322 441.664 445.614C441.95 444.793 441.169 443.551 440.747 442.552C440.536 442.057 440.094 441.624 439.673 441.261C409.159 414.93 384.636 382.212 351.51 358.683C321.525 337.381 288.321 326.608 251.312 329.682C237.358 330.841 224.438 336.75 212.034 342.443C148.121 371.799 86.0517 361.641 24.4284 335.413C17.4248 332.43 10.4832 329.294 3.54576 326.159C1.84342 325.391 -0.623333 324.851 0.128674 322.202C0.686482 320.238 2.7731 320.18 4.42173 320.411C38.324 325.218 67.2102 310.493 96.3815 296.902C115.826 287.846 135.263 279.611 157.133 277.078C190.23 273.245 219.884 281.006 246.977 299.382C257.452 306.487 268.43 311.656 280.768 314.173C292.672 316.599 304.212 320.255 315.579 324.529C317.542 325.267 319.529 327.009 322.261 325.226C321.885 324.294 321.765 323.002 321.058 322.4C296.75 301.849 276.111 277.148 249.485 259.225C246.452 257.183 243.461 254.91 240.131 253.499C214.05 242.45 189.515 228.34 166.066 212.81C110.471 175.995 63.6898 130.978 36.3159 68.4309C26.9943 47.1169 19.2222 24.8168 4.57048 6.12272C3.56642 4.84371 2.0748 3.47807 3.34743 1.68333C4.65311 -0.165037 6.73973 -0.218672 8.71891 0.24342C10.0659 0.561108 11.4005 1.13872 12.607 1.82774C45.6251 20.7653 79.7836 37.7265 111.88 58.2442C157.001 87.0879 192.126 125.305 217.777 172.27C230.33 195.259 243.556 217.909 256.84 240.445C263.914 252.443 275.682 262.031 286.462 271.409C303.233 286.002 316.484 304.296 335.607 317.173C336.941 313.224 334.508 310.171 333.132 307.229C321.558 282.487 308.543 258.343 298.329 233.064C276.979 180.208 274.281 126.634 299.221 74.0296C310.489 50.2608 326.145 29.1077 345.784 11.214C347.238 9.88547 348.659 8.44968 350.329 7.44298C352.638 6.04845 355.374 3.70086 357.712 6.99327C359.766 9.88134 357.167 11.6719 355.101 13.1036C344.3 20.5837 341.028 31.5419 340.396 43.8946C339.487 61.7347 343.255 78.993 350.027 95.0424C369.654 141.569 366.096 187.589 345.957 232.069C332.648 261.458 335.979 287.859 349.002 315.514C360.753 340.475 377.062 361.393 397.672 379.617C415.803 395.654 432.818 412.949 450.333 429.68C452.168 431.429 453.986 433.211 455.961 434.792C457.209 435.79 458.626 437.457 460.386 436.355C462.072 435.303 461.394 433.273 461.068 431.726C458.324 418.804 460.328 415.144 444.73 412.388C432.884 410.292 422.116 392.869 423.852 381.284C425.657 369.216 435.599 360.605 447.871 360.473C467.886 360.259 482.946 382.068 474.728 400.098C469.691 411.155 469.852 422.22 473.654 433.005C479.203 448.745 487.277 463.132 499.197 475.315C517.518 494.043 536.744 511.924 553.284 532.359C555.792 535.458 558.197 539.084 563.56 540.796L563.556 540.792Z" fill="#006354"></path><path d="M457.485 107.234C434.727 106.578 422.327 93.6603 423.186 71.5005C423.901 53.1035 438.689 40.1938 458.432 40.7384C476.339 41.2293 490.14 57.4686 489.33 77.0992C488.607 94.6505 474.777 107.733 457.481 107.238L457.485 107.234Z" fill="#006354"></path><path d="M194.253 44.4888C193.745 19.2759 210.322 9.36976 228.172 8.76326C244.671 8.20215 259.393 26.0422 258.885 44.497C258.426 61.0498 242.543 74.9538 225.127 74.0462C206.889 73.0931 193.646 60.4186 194.253 44.4929V44.4888Z" fill="#006354"></path><path d="M73.767 224.845C73.3704 242.376 60.6441 255.318 44.0214 255.087C25.2254 254.827 10.8381 240.036 11.2595 221.408C11.6934 202.157 24.4981 189.813 43.7239 190.11C60.0036 190.361 74.172 206.741 73.767 224.841V224.845Z" fill="#006354"></path></g><defs><clipPath id="clip0_116_633"><rect width="513" height="318" fill="white"></rect></clipPath></defs></svg>