<svg xmlns="http://www.w3.org/2000/svg" width="64" height="64" viewBox="0 0 64 64" fill="none"><path d="M58.5697 48.8728C58.2788 47.1273 56.4364 46.0606 54.7879 46.7394L39.7576 52.7515C39.5636 52.0728 39.0788 51.4909 38.497 51.1031L36.4606 49.7455V40.1455C40.6303 41.1152 44.8 38.8849 46.4485 35.0061C46.5455 34.8121 46.5455 34.5212 46.4485 34.2303C46.3515 34.0364 46.1576 33.8425 45.9636 33.7455C42.6667 32.3879 38.8848 33.2606 36.5576 35.6849V29.6728C40.6303 30.6425 44.897 28.5091 46.5455 24.5334C46.6424 24.3394 46.6424 24.0485 46.5455 23.7576C46.4485 23.5637 46.2545 23.3697 46.0606 23.2728C42.7636 21.9152 38.9818 22.7879 36.6545 25.2122V19.9758C39.5636 19.4909 41.7939 16.9697 41.7939 13.8667C41.697 11.0546 38.5939 0.969727 35.4909 0.969727C32 0.969727 29.3818 11.1515 29.3818 13.7697C29.3818 16.8728 31.6121 19.394 34.5212 19.8788V25.1152C32.097 22.6909 28.4121 21.8182 25.1151 23.1758C24.9212 23.2728 24.7273 23.4667 24.6303 23.6606C24.5333 23.8546 24.5333 24.1455 24.6303 24.4364C26.2788 28.3152 30.4485 30.5455 34.6182 29.5758V35.5879C32.1939 33.1637 28.5091 32.2909 25.2121 33.6485C25.0182 33.7455 24.8242 33.9394 24.7273 34.1334C24.6303 34.3273 24.6303 34.6182 24.7273 34.9091C26.3758 38.8849 30.5454 41.0182 34.7151 40.0485V48.2909L28.1212 43.9273C26.5697 42.9576 24.8242 42.3758 23.0788 42.3758H19.103V41.697C19.103 40.2425 17.8424 38.9818 16.3879 38.9818H8.14545C6.6909 38.9818 5.4303 40.2425 5.4303 41.697V56.6303C5.4303 58.0849 6.6909 59.3455 8.14545 59.3455H16.1939C17.6485 59.3455 18.9091 58.0849 18.9091 56.6303V56.3394H23.9515L32.6788 62.1576C34.3273 63.3212 36.5576 63.3212 38.303 62.3515L57.1152 51.8788C58.1818 51.297 58.7636 50.1334 58.5697 48.8728ZM44.2182 35.1031C42.6667 37.6243 39.7576 38.8849 36.9454 38.2061C38.4 35.6849 41.4061 34.4243 44.2182 35.1031ZM44.2182 24.5334C42.6667 27.0546 39.7576 28.3152 36.8485 27.6364C38.4 25.1152 41.4061 23.9515 44.2182 24.5334ZM26.8606 24.5334C29.6727 23.8546 32.6788 25.1152 34.1333 27.6364C31.4182 28.3152 28.4121 27.1515 26.8606 24.5334ZM26.8606 35.1031C29.6727 34.4243 32.6788 35.6849 34.1333 38.2061C31.3212 38.8849 28.3151 37.6243 26.8606 35.1031ZM31.3212 13.7697C31.3212 10.5697 34.2303 3.00609 35.4909 2.90912C36.7515 3.39397 39.7576 10.9576 39.7576 13.7697C39.7576 16.097 37.8182 17.9394 35.5879 17.9394C33.3576 17.9394 31.3212 16.097 31.3212 13.7697ZM16.9697 56.6303C16.9697 57.0182 16.5818 57.4061 16.1939 57.4061H8.14545C7.75757 57.4061 7.36969 57.0182 7.36969 56.6303V41.697C7.36969 41.3091 7.75757 40.9212 8.14545 40.9212H16.1939C16.5818 40.9212 16.9697 41.3091 16.9697 41.697V56.6303ZM56.1455 50.2303L37.4303 60.6061C36.2667 61.2849 34.9091 61.1879 33.8424 60.5091L24.8242 54.594C24.6303 54.497 24.4364 54.4 24.2424 54.4H18.9091V44.3152H22.8848C24.3394 44.3152 25.697 44.7031 26.8606 45.5758C27.3454 45.8667 36.9455 52.3637 37.3333 52.7515C38.1091 53.3334 38.2061 54.4 37.5273 55.0788C37.0424 55.5637 36.2667 55.6606 35.6848 55.2728L27.3454 50.4243C26.8606 50.1334 26.2788 50.3273 25.9879 50.8121C25.697 51.297 25.8909 51.8788 26.3758 52.1697L34.7151 57.0182C36.0727 57.794 37.8182 57.6 38.8848 56.4364C39.2727 56.0485 39.5636 55.4667 39.7576 54.8849L55.2727 48.6788C55.7576 48.4849 56.3394 48.7758 56.4364 49.3576C56.7273 49.6485 56.5333 50.0364 56.1455 50.2303Z" fill="#E1EBB9"></path><path d="M13.7697 53.9152C13.3818 54.3031 13.3818 54.8849 13.7697 55.2728C14.1575 55.6606 14.7394 55.6606 15.1272 55.2728C15.5151 54.8849 15.5151 54.3031 15.1272 53.9152C14.7394 53.5273 14.0606 53.5273 13.7697 53.9152Z" fill="#E1EBB9"></path></svg>