<?xml version="1.0" encoding="UTF-8"?> <svg xmlns="http://www.w3.org/2000/svg" width="48" height="48" viewBox="0 0 48 48" fill="none"><path d="M31.437 11.2018C33.202 11.2018 34.6371 9.7658 34.6371 8.00183C34.6371 6.23687 33.201 4.8019 31.437 4.8019C29.6729 4.8019 28.2369 6.23787 28.2369 8.00183C28.2369 9.7658 29.6729 11.2018 31.437 11.2018ZM31.437 5.97188C32.556 5.97188 33.467 6.88186 33.467 8.00183C33.467 9.12081 32.557 10.0318 31.437 10.0318C30.3169 10.0318 29.4069 9.12181 29.4069 8.00183C29.4079 6.88286 30.3179 5.97188 31.437 5.97188ZM36.3311 22.7355C36.6541 22.7355 36.9161 22.4735 36.9161 22.1505V20.2356L38.7942 18.3576C42.9873 14.1647 42.9873 7.34285 38.7942 3.14993C36.7631 1.11898 34.0631 0 31.19 0C28.5079 0 25.9768 0.97498 23.9998 2.75694C22.0227 0.97498 19.4906 0 16.8096 0C13.9375 0 11.2364 1.11798 9.20534 3.14993C5.01222 7.34285 5.01222 14.1647 9.20534 18.3576L11.0834 20.2356V22.1505C11.0834 22.4735 11.3454 22.7355 11.6684 22.7355H13.5825L23.5858 32.7373C23.6998 32.8513 23.8498 32.9083 23.9998 32.9083C24.1498 32.9083 24.2998 32.8513 24.4138 32.7373L34.4171 22.7355H36.3311ZM35.7461 21.5655H29.6089V18.5726C29.6089 16.8576 28.6409 15.3657 27.2239 14.6107C27.7809 13.4967 28.9149 12.7767 30.1879 12.7767H32.43C34.2591 12.7767 35.7471 14.2647 35.7471 16.0937V21.5655H35.7461ZM22.8787 15.2547H25.1208C26.9499 15.2547 28.4379 16.7427 28.4379 18.5716V24.0435H19.5626V18.5716C19.5616 16.7427 21.0497 15.2547 22.8787 15.2547ZM10.0324 17.5296C6.29625 13.7927 6.29625 7.71384 10.0324 3.97692C11.8424 2.16695 14.2495 1.16998 16.8086 1.16998C19.3686 1.16998 21.7747 2.16695 23.5858 3.97692C23.8058 4.19691 24.1938 4.19691 24.4138 3.97692C26.2238 2.16695 28.6309 1.16998 31.19 1.16998C33.75 1.16998 36.1561 2.16695 37.9672 3.97692C41.7033 7.71384 41.7033 13.7927 37.9672 17.5296L36.9171 18.5796V16.0927C36.9171 13.6187 34.9041 11.6058 32.429 11.6058H30.1869C28.4209 11.6058 26.8538 12.6297 26.1228 14.2007C25.7998 14.1267 25.4658 14.0837 25.1208 14.0837H22.8787C22.5337 14.0837 22.1997 14.1267 21.8767 14.2007C21.1457 12.6287 19.5786 11.6058 17.8126 11.6058H15.5705C13.0954 11.6058 11.0824 13.6187 11.0824 16.0927V18.5796L10.0324 17.5296ZM12.2544 16.0927C12.2544 14.2637 13.7425 12.7757 15.5715 12.7757H17.8136C19.0866 12.7757 20.2207 13.4957 20.7777 14.6097C19.3606 15.3647 18.3926 16.8566 18.3926 18.5716V21.5646H12.2554V16.0927H12.2544ZM23.9998 31.4963L15.2385 22.7355H18.3916V24.6285C18.3916 24.9515 18.6536 25.2135 18.9766 25.2135H29.0229C29.3459 25.2135 29.6079 24.9515 29.6079 24.6285V22.7355H32.761L23.9998 31.4963ZM16.8216 11.2018C18.5866 11.2018 20.0217 9.7658 20.0217 8.00183C20.0217 6.23687 18.5856 4.8019 16.8216 4.8019C15.0565 4.8019 13.6215 6.23787 13.6215 8.00183C13.6215 9.7658 15.0565 11.2018 16.8216 11.2018ZM16.8216 5.97188C17.9406 5.97188 18.8516 6.88186 18.8516 8.00183C18.8516 9.12081 17.9416 10.0318 16.8216 10.0318C15.7025 10.0318 14.7915 9.12181 14.7915 8.00183C14.7915 6.88286 15.7025 5.97188 16.8216 5.97188ZM24.1298 13.6807C25.8948 13.6807 27.3299 12.2447 27.3299 10.4808C27.3299 8.71682 25.8938 7.28085 24.1298 7.28085C22.3647 7.28085 20.9297 8.71682 20.9297 10.4808C20.9297 12.2447 22.3647 13.6807 24.1298 13.6807ZM24.1298 8.45082C25.2488 8.45082 26.1598 9.3608 26.1598 10.4808C26.1598 11.6008 25.2498 12.5107 24.1298 12.5107C23.0107 12.5107 22.0997 11.6008 22.0997 10.4808C22.0997 9.3608 23.0107 8.45082 24.1298 8.45082ZM46.2204 19.9126C45.5534 19.7336 44.8474 19.8776 44.2344 20.3196C43.7173 20.6926 43.3313 21.2456 43.1123 21.8845C42.7213 21.5486 42.2143 21.3446 41.6623 21.3446C40.5582 21.3446 39.6412 22.1535 39.4672 23.2085C39.2852 23.1665 39.1002 23.1385 38.9102 23.1445C38.3172 23.1605 37.7642 23.4075 37.3542 23.8395C36.9441 24.2725 36.7261 24.8375 36.7421 25.4295L36.8411 29.1754L32.116 31.9033C31.332 32.3553 30.815 33.0283 30.581 33.9043L29.0229 39.7192L28.5079 39.5812C27.6139 39.3432 26.6928 39.8742 26.4528 40.7682L25.7558 43.3691C25.6398 43.8011 25.6998 44.2531 25.9248 44.6411C26.1488 45.0301 26.5108 45.3081 26.9429 45.4231L36.3411 47.941C36.4861 47.98 36.6311 47.998 36.7751 47.998C37.5162 47.998 38.1952 47.503 38.3962 46.754L39.0932 44.1531C39.2092 43.7211 39.1492 43.2691 38.9242 42.8811C38.7002 42.4921 38.3382 42.2141 37.9062 42.0991L37.3912 41.9611L37.9772 39.7752C38.1362 39.1812 38.4302 38.7372 38.8752 38.4162L43.9093 34.7903C44.6674 34.2443 45.1854 33.4713 45.4464 32.4953L47.8825 23.4035C48.3035 21.8375 47.5574 20.2706 46.2204 19.9126ZM41.6623 22.5155C42.1613 22.5155 42.5963 22.8835 42.6943 23.3665L41.3993 28.1804C41.1603 28.0164 40.8913 27.8964 40.6052 27.8224V23.5725C40.6052 22.9895 41.0793 22.5155 41.6623 22.5155ZM37.9132 25.3995C37.9062 25.1195 38.0092 24.8515 38.2042 24.6455C38.3992 24.4395 38.6612 24.3225 38.9412 24.3145C39.1142 24.3105 39.2822 24.3525 39.4342 24.4275V27.8084C39.1862 27.8684 38.9332 27.9674 38.6802 28.1134L37.9952 28.5094L37.9132 25.3995ZM37.9622 43.8521L37.2651 46.452C37.1931 46.722 36.9151 46.884 36.6441 46.811L27.2459 44.2931C27.1159 44.2581 27.0069 44.1741 26.9389 44.0561C26.8708 43.9381 26.8518 43.8021 26.8868 43.6721L27.5839 41.0711C27.6449 40.8451 27.8499 40.6952 28.0739 40.6952C28.1169 40.6952 28.1609 40.7012 28.2049 40.7122L37.6032 43.2301C37.8732 43.3031 38.0342 43.5811 37.9622 43.8521ZM46.7524 23.1015L44.3164 32.1933C44.1264 32.9023 43.7593 33.4573 43.2253 33.8413L38.1912 37.4672C37.5272 37.9452 37.0751 38.6202 36.8461 39.4732L36.2601 41.6591L30.1539 40.0232L31.712 34.2093C31.865 33.6373 32.189 33.2153 32.701 32.9193L39.2652 29.1294C40.1532 28.6174 40.8593 29.0804 41.1953 29.6324C41.1973 29.6354 41.1993 29.6364 41.2013 29.6394C41.4093 29.9894 41.4773 30.3904 41.3863 30.7414C41.2963 31.0874 41.0603 31.3723 40.6862 31.5893L35.8591 34.3763C35.5791 34.5383 35.4831 34.8963 35.6451 35.1763C35.7531 35.3643 35.9501 35.4693 36.1531 35.4693C36.2521 35.4693 36.3531 35.4443 36.4451 35.3903L41.2723 32.6033C41.9193 32.2293 42.3503 31.6883 42.5203 31.0364C42.6703 30.4594 42.5973 29.8224 42.3233 29.2544L44.1653 22.4085C44.2924 21.9325 44.5604 21.5286 44.9194 21.2696C45.2414 21.0376 45.5964 20.9566 45.9184 21.0436C46.6184 21.2316 47.0004 22.1735 46.7524 23.1015ZM21.5467 40.7682C21.3067 39.8752 20.3847 39.3432 19.4916 39.5822L18.9766 39.7202L17.4186 33.9053C17.1836 33.0303 16.6676 32.3573 15.8835 31.9053L11.1584 29.1774L11.2584 25.4315C11.2904 24.2035 10.3184 23.1785 9.09033 23.1455C8.90133 23.1405 8.71532 23.1685 8.53332 23.2105C8.35931 22.1545 7.44229 21.3446 6.33825 21.3446C5.78624 21.3446 5.28022 21.5486 4.88821 21.8845C4.66921 21.2456 4.28319 20.6926 3.76618 20.3196C3.15316 19.8776 2.44714 19.7326 1.78012 19.9126C0.443083 20.2706 -0.302939 21.8375 0.117073 23.4045L2.55314 32.4963C2.81515 33.4733 3.33217 34.2453 4.09119 34.7913L9.12533 38.4172C9.57035 38.7382 9.86436 39.1822 10.0234 39.7762L10.6094 41.9621L10.0944 42.1001C9.20034 42.3391 8.66832 43.2611 8.90733 44.1551L9.60435 46.756C9.80536 47.504 10.4844 48 11.2254 48C11.3684 48 11.5144 47.982 11.6584 47.943L21.0567 45.4251C21.4887 45.3091 21.8497 45.0321 22.0747 44.6431C22.2987 44.2541 22.3587 43.8021 22.2437 43.3711L21.5467 40.7682ZM10.0874 25.3995L10.0044 28.5104L9.31934 28.1144C9.06633 27.9684 8.81333 27.8684 8.56532 27.8094V24.4285C8.71732 24.3525 8.88533 24.3115 9.05833 24.3155C9.64135 24.3305 10.1024 24.8175 10.0874 25.3995ZM6.33725 22.5155C6.92027 22.5155 7.39428 22.9895 7.39428 23.5725V27.8224C7.10828 27.8964 6.84027 28.0164 6.60026 28.1804L5.30522 23.3665C5.40323 22.8835 5.83824 22.5155 6.33725 22.5155ZM11.1534 39.4732C10.9254 38.6202 10.4724 37.9452 9.80835 37.4672L4.77421 33.8413C4.24019 33.4573 3.87318 32.9023 3.68318 32.1933L1.24711 23.1015C0.998099 22.1735 1.38111 21.2316 2.08213 21.0436C2.40414 20.9576 2.75915 21.0376 3.08116 21.2696C3.44017 21.5276 3.70718 21.9325 3.83518 22.4085L5.67723 29.2534C5.40323 29.8204 5.32922 30.4574 5.48023 31.0354C5.65023 31.6863 6.08125 32.2283 6.72827 32.6023L11.5554 35.3893C11.6474 35.4423 11.7484 35.4683 11.8474 35.4683C12.0494 35.4683 12.2464 35.3633 12.3554 35.1753C12.5174 34.8953 12.4214 34.5373 12.1414 34.3753L7.31428 31.5883C6.93927 31.3723 6.70426 31.0864 6.61426 30.7404C6.52326 30.3904 6.59026 29.9894 6.79827 29.6394C6.80027 29.6364 6.80227 29.6344 6.80427 29.6324C7.14028 29.0804 7.8483 28.6174 8.73432 29.1294L15.2995 32.9193C15.8115 33.2143 16.1355 33.6363 16.2885 34.2083L17.8466 40.0232L11.7394 41.6591L11.1534 39.4732ZM21.0607 44.0561C20.9927 44.1741 20.8837 44.2581 20.7537 44.2931L11.3554 46.811C11.0864 46.884 10.8064 46.723 10.7344 46.453L10.0374 43.8521C9.96536 43.5821 10.1264 43.3031 10.3954 43.2311L19.7936 40.7132C19.8376 40.7012 19.8816 40.6962 19.9246 40.6962C20.1487 40.6962 20.3537 40.8461 20.4147 41.0721L21.1117 43.6731C21.1467 43.8011 21.1287 43.9381 21.0607 44.0561Z" fill="#024A3F"></path></svg> 